SplineFontDB: 3.0
FontName: DSEG14Classic-BoldItalic
FullName: DSEG14 Classic-Bold Italic
FamilyName: DSEG14 Classic
Weight: Bold
Copyright: Created by Keshikan(https://twitter.com/keshinomi_88pro)\nwith FontForge 2.0 (http://fontforge.sf.net)
UComments: "2014-8-31: Created." 
Version: 0.1
ItalicAngle: -5
UnderlinePosition: -100
UnderlineWidth: 50
Ascent: 1000
Descent: 0
LayerCount: 2
Layer: 0 0 "+gMyXYgAA"  1
Layer: 1 0 "+Uk2XYgAA"  0
XUID: [1021 682 390630330 14528854]
FSType: 8
OS2Version: 0
OS2_WeightWidthSlopeOnly: 0
OS2_UseTypoMetrics: 1
CreationTime: 1409488158
ModificationTime: 1483779761
PfmFamily: 17
TTFWeight: 700
TTFWidth: 5
LineGap: 90
VLineGap: 0
OS2TypoAscent: 0
OS2TypoAOffset: 1
OS2TypoDescent: 0
OS2TypoDOffset: 1
OS2TypoLinegap: 90
OS2WinAscent: 0
OS2WinAOffset: 1
OS2WinDescent: 0
OS2WinDOffset: 1
HheadAscent: 0
HheadAOffset: 1
HheadDescent: 0
HheadDOffset: 1
OS2Vendor: 'PfEd'
MarkAttachClasses: 1
DEI: 91125
LangName: 1033 "Created by Keshikan+AAoA-with FontForge 2.0 (http://fontforge.sf.net)" "" "Bold Italic" "" "" "Version 0.1" "" "" "" "Keshikan(Twitter:@keshinomi_88pro)" "" "" "http://www.keshikan.net" "" "" "" "" "" "" "DSEG14 12:34" 
Encoding: ISO8859-1
UnicodeInterp: none
NameList: Adobe Glyph List
DisplaySize: -48
AntiAlias: 1
FitToEm: 1
WinInfo: 0 24 8
BeginPrivate: 0
EndPrivate
TeXData: 1 0 0 346030 173015 115343 897581 1048576 115343 783286 444596 497025 792723 393216 433062 380633 303038 157286 324010 404750 52429 2506097 1059062 262144
BeginChars: 256 92

StartChar: zero
Encoding: 48 48 0
Width: 816
VWidth: 200
Flags: HW
LayerCount: 2
Fore
SplineSet
162 515 m 1
 158 510 l 1
 100 510 l 1
 136 924 l 1
 170 955 l 1
 255 862 l 1
 240 698 l 1
 231 590 l 1
 230 576 l 1
 162 515 l 1
192 144 m 1
 191 138 l 1
 90 45 l 1
 62 76 l 1
 98 490 l 1
 156 490 l 1
 160 485 l 1
 216 424 l 1
 213 384 l 1
 206 302 l 1
 192 144 l 1
654 485 m 1
 658 489 l 1
 716 489 l 1
 680 76 l 1
 646 45 l 1
 561 138 l 1
 562 144 l 1
 576 302 l 1
 584 396 l 1
 586 424 l 1
 654 485 l 1
513 766 m 1
 573 856 l 1
 604 856 l 1
 587 662 l 1
 534 582 l 1
 497 582 l 1
 513 766 l 1
726 955 m 1
 754 924 l 1
 718 510 l 1
 660 510 l 1
 656 514 l 1
 600 575 l 1
 601 586 l 1
 610 698 l 1
 624 856 l 1
 625 862 l 1
 726 955 l 1
631 31 m 1
 597 0 l 1
 426 0 l 1
 302 0 l 1
 131 0 l 1
 103 31 l 1
 204 124 l 1
 229 124 l 1
 313 124 l 1
 437 124 l 1
 521 124 l 1
 546 124 l 1
 631 31 l 1
185 969 m 1
 219 1000 l 1
 390 1000 l 1
 514 1000 l 1
 685 1000 l 1
 713 969 l 1
 612 876 l 1
 587 876 l 1
 503 876 l 1
 379 876 l 1
 295 876 l 1
 276 876 l 1
 270 876 l 1
 270 876 l 1
 185 969 l 1
303 234 m 1
 243 144 l 1
 212 144 l 1
 229 338 l 1
 282 418 l 1
 319 418 l 1
 303 234 l 1
EndSplineSet
EndChar

StartChar: eight
Encoding: 56 56 1
Width: 816
VWidth: 200
Flags: HW
LayerCount: 2
Fore
SplineSet
162 515 m 1
 158 510 l 1
 100 510 l 1
 136 924 l 1
 170 955 l 1
 255 862 l 1
 240 698 l 1
 231 590 l 1
 230 576 l 1
 162 515 l 1
582 562 m 1
 640 499 l 1
 574 438 l 1
 546 438 l 1
 510 438 l 1
 451 438 l 1
 420 500 l 1
 461 562 l 1
 520 562 l 1
 557 562 l 1
 582 562 l 1
192 144 m 1
 191 138 l 1
 90 45 l 1
 62 76 l 1
 98 490 l 1
 156 490 l 1
 160 485 l 1
 216 424 l 1
 213 384 l 1
 206 302 l 1
 192 144 l 1
654 485 m 1
 658 489 l 1
 716 489 l 1
 680 76 l 1
 646 45 l 1
 561 138 l 1
 562 144 l 1
 576 302 l 1
 584 396 l 1
 586 424 l 1
 654 485 l 1
726 955 m 1
 754 924 l 1
 718 510 l 1
 660 510 l 1
 656 514 l 1
 600 575 l 1
 601 586 l 1
 610 698 l 1
 624 856 l 1
 625 862 l 1
 726 955 l 1
631 31 m 1
 597 0 l 1
 426 0 l 1
 302 0 l 1
 131 0 l 1
 103 31 l 1
 204 124 l 1
 229 124 l 1
 313 124 l 1
 437 124 l 1
 521 124 l 1
 546 124 l 1
 631 31 l 1
185 969 m 1
 219 1000 l 1
 390 1000 l 1
 514 1000 l 1
 685 1000 l 1
 713 969 l 1
 612 876 l 1
 587 876 l 1
 503 876 l 1
 379 876 l 1
 295 876 l 1
 276 876 l 1
 270 876 l 1
 270 876 l 1
 185 969 l 1
365 562 m 1
 396 500 l 1
 355 438 l 1
 296 438 l 1
 259 438 l 1
 232 438 l 1
 175 500 l 1
 242 562 l 1
 269 562 l 1
 306 562 l 1
 365 562 l 1
EndSplineSet
EndChar

StartChar: one
Encoding: 49 49 2
Width: 816
VWidth: 200
Flags: HW
LayerCount: 2
Fore
SplineSet
654 485 m 1
 658 489 l 1
 716 489 l 1
 680 76 l 1
 646 45 l 1
 561 138 l 1
 562 144 l 1
 576 302 l 1
 584 396 l 1
 586 424 l 1
 654 485 l 1
726 955 m 1
 754 924 l 1
 718 510 l 1
 660 510 l 1
 656 514 l 1
 600 575 l 1
 601 586 l 1
 610 698 l 1
 624 856 l 1
 625 862 l 1
 726 955 l 1
EndSplineSet
EndChar

StartChar: two
Encoding: 50 50 3
Width: 816
VWidth: 200
Flags: HW
LayerCount: 2
Fore
SplineSet
582 562 m 1
 640 499 l 1
 574 438 l 1
 546 438 l 1
 510 438 l 1
 451 438 l 1
 420 500 l 1
 461 562 l 1
 520 562 l 1
 557 562 l 1
 582 562 l 1
192 144 m 1
 191 138 l 1
 90 45 l 1
 62 76 l 1
 98 490 l 1
 156 490 l 1
 160 485 l 1
 216 424 l 1
 213 384 l 1
 206 302 l 1
 192 144 l 1
726 955 m 1
 754 924 l 1
 718 510 l 1
 660 510 l 1
 656 514 l 1
 600 575 l 1
 601 586 l 1
 610 698 l 1
 624 856 l 1
 625 862 l 1
 726 955 l 1
631 31 m 1
 597 0 l 1
 426 0 l 1
 302 0 l 1
 131 0 l 1
 103 31 l 1
 204 124 l 1
 229 124 l 1
 313 124 l 1
 437 124 l 1
 521 124 l 1
 546 124 l 1
 631 31 l 1
185 969 m 1
 219 1000 l 1
 390 1000 l 1
 514 1000 l 1
 685 1000 l 1
 713 969 l 1
 612 876 l 1
 587 876 l 1
 503 876 l 1
 379 876 l 1
 295 876 l 1
 276 876 l 1
 270 876 l 1
 270 876 l 1
 185 969 l 1
365 562 m 1
 396 500 l 1
 355 438 l 1
 296 438 l 1
 259 438 l 1
 232 438 l 1
 175 500 l 1
 242 562 l 1
 269 562 l 1
 306 562 l 1
 365 562 l 1
EndSplineSet
EndChar

StartChar: three
Encoding: 51 51 4
Width: 816
VWidth: 200
Flags: HW
LayerCount: 2
Fore
SplineSet
582 562 m 1
 640 499 l 1
 574 438 l 1
 546 438 l 1
 510 438 l 1
 451 438 l 1
 420 500 l 1
 461 562 l 1
 520 562 l 1
 557 562 l 1
 582 562 l 1
654 485 m 1
 658 489 l 1
 716 489 l 1
 680 76 l 1
 646 45 l 1
 561 138 l 1
 562 144 l 1
 576 302 l 1
 584 396 l 1
 586 424 l 1
 654 485 l 1
726 955 m 1
 754 924 l 1
 718 510 l 1
 660 510 l 1
 656 514 l 1
 600 575 l 1
 601 586 l 1
 610 698 l 1
 624 856 l 1
 625 862 l 1
 726 955 l 1
631 31 m 1
 597 0 l 1
 426 0 l 1
 302 0 l 1
 131 0 l 1
 103 31 l 1
 204 124 l 1
 229 124 l 1
 313 124 l 1
 437 124 l 1
 521 124 l 1
 546 124 l 1
 631 31 l 1
185 969 m 1
 219 1000 l 1
 390 1000 l 1
 514 1000 l 1
 685 1000 l 1
 713 969 l 1
 612 876 l 1
 587 876 l 1
 503 876 l 1
 379 876 l 1
 295 876 l 1
 276 876 l 1
 270 876 l 1
 270 876 l 1
 185 969 l 1
365 562 m 1
 396 500 l 1
 355 438 l 1
 296 438 l 1
 259 438 l 1
 232 438 l 1
 175 500 l 1
 242 562 l 1
 269 562 l 1
 306 562 l 1
 365 562 l 1
EndSplineSet
EndChar

StartChar: four
Encoding: 52 52 5
Width: 816
VWidth: 200
Flags: HW
LayerCount: 2
Fore
SplineSet
162 515 m 1
 158 510 l 1
 100 510 l 1
 136 924 l 1
 170 955 l 1
 255 862 l 1
 240 698 l 1
 231 590 l 1
 230 576 l 1
 162 515 l 1
582 562 m 1
 640 499 l 1
 574 438 l 1
 546 438 l 1
 510 438 l 1
 451 438 l 1
 420 500 l 1
 461 562 l 1
 520 562 l 1
 557 562 l 1
 582 562 l 1
654 485 m 1
 658 489 l 1
 716 489 l 1
 680 76 l 1
 646 45 l 1
 561 138 l 1
 562 144 l 1
 576 302 l 1
 584 396 l 1
 586 424 l 1
 654 485 l 1
726 955 m 1
 754 924 l 1
 718 510 l 1
 660 510 l 1
 656 514 l 1
 600 575 l 1
 601 586 l 1
 610 698 l 1
 624 856 l 1
 625 862 l 1
 726 955 l 1
365 562 m 1
 396 500 l 1
 355 438 l 1
 296 438 l 1
 259 438 l 1
 232 438 l 1
 175 500 l 1
 242 562 l 1
 269 562 l 1
 306 562 l 1
 365 562 l 1
EndSplineSet
EndChar

StartChar: five
Encoding: 53 53 6
Width: 816
VWidth: 200
Flags: HW
LayerCount: 2
Fore
SplineSet
162 515 m 1
 158 510 l 1
 100 510 l 1
 136 924 l 1
 170 955 l 1
 255 862 l 1
 240 698 l 1
 231 590 l 1
 230 576 l 1
 162 515 l 1
582 562 m 1
 640 499 l 1
 574 438 l 1
 546 438 l 1
 510 438 l 1
 451 438 l 1
 420 500 l 1
 461 562 l 1
 520 562 l 1
 557 562 l 1
 582 562 l 1
654 485 m 1
 658 489 l 1
 716 489 l 1
 680 76 l 1
 646 45 l 1
 561 138 l 1
 562 144 l 1
 576 302 l 1
 584 396 l 1
 586 424 l 1
 654 485 l 1
631 31 m 1
 597 0 l 1
 426 0 l 1
 302 0 l 1
 131 0 l 1
 103 31 l 1
 204 124 l 1
 229 124 l 1
 313 124 l 1
 437 124 l 1
 521 124 l 1
 546 124 l 1
 631 31 l 1
185 969 m 1
 219 1000 l 1
 390 1000 l 1
 514 1000 l 1
 685 1000 l 1
 713 969 l 1
 612 876 l 1
 587 876 l 1
 503 876 l 1
 379 876 l 1
 295 876 l 1
 276 876 l 1
 270 876 l 1
 270 876 l 1
 185 969 l 1
365 562 m 1
 396 500 l 1
 355 438 l 1
 296 438 l 1
 259 438 l 1
 232 438 l 1
 175 500 l 1
 242 562 l 1
 269 562 l 1
 306 562 l 1
 365 562 l 1
EndSplineSet
EndChar

StartChar: six
Encoding: 54 54 7
Width: 816
VWidth: 200
Flags: HW
LayerCount: 2
Fore
SplineSet
162 515 m 1
 158 510 l 1
 100 510 l 1
 136 924 l 1
 170 955 l 1
 255 862 l 1
 240 698 l 1
 231 590 l 1
 230 576 l 1
 162 515 l 1
582 562 m 1
 640 499 l 1
 574 438 l 1
 546 438 l 1
 510 438 l 1
 451 438 l 1
 420 500 l 1
 461 562 l 1
 520 562 l 1
 557 562 l 1
 582 562 l 1
192 144 m 1
 191 138 l 1
 90 45 l 1
 62 76 l 1
 98 490 l 1
 156 490 l 1
 160 485 l 1
 216 424 l 1
 213 384 l 1
 206 302 l 1
 192 144 l 1
654 485 m 1
 658 489 l 1
 716 489 l 1
 680 76 l 1
 646 45 l 1
 561 138 l 1
 562 144 l 1
 576 302 l 1
 584 396 l 1
 586 424 l 1
 654 485 l 1
631 31 m 1
 597 0 l 1
 426 0 l 1
 302 0 l 1
 131 0 l 1
 103 31 l 1
 204 124 l 1
 229 124 l 1
 313 124 l 1
 437 124 l 1
 521 124 l 1
 546 124 l 1
 631 31 l 1
185 969 m 1
 219 1000 l 1
 390 1000 l 1
 514 1000 l 1
 685 1000 l 1
 713 969 l 1
 612 876 l 1
 587 876 l 1
 503 876 l 1
 379 876 l 1
 295 876 l 1
 276 876 l 1
 270 876 l 1
 270 876 l 1
 185 969 l 1
365 562 m 1
 396 500 l 1
 355 438 l 1
 296 438 l 1
 259 438 l 1
 232 438 l 1
 175 500 l 1
 242 562 l 1
 269 562 l 1
 306 562 l 1
 365 562 l 1
EndSplineSet
EndChar

StartChar: seven
Encoding: 55 55 8
Width: 816
VWidth: 200
Flags: HW
LayerCount: 2
Fore
SplineSet
162 515 m 1
 158 510 l 1
 100 510 l 1
 136 924 l 1
 170 955 l 1
 255 862 l 1
 240 698 l 1
 231 590 l 1
 230 576 l 1
 162 515 l 1
654 485 m 1
 658 489 l 1
 716 489 l 1
 680 76 l 1
 646 45 l 1
 561 138 l 1
 562 144 l 1
 576 302 l 1
 584 396 l 1
 586 424 l 1
 654 485 l 1
726 955 m 1
 754 924 l 1
 718 510 l 1
 660 510 l 1
 656 514 l 1
 600 575 l 1
 601 586 l 1
 610 698 l 1
 624 856 l 1
 625 862 l 1
 726 955 l 1
185 969 m 1
 219 1000 l 1
 390 1000 l 1
 514 1000 l 1
 685 1000 l 1
 713 969 l 1
 612 876 l 1
 587 876 l 1
 503 876 l 1
 379 876 l 1
 295 876 l 1
 276 876 l 1
 270 876 l 1
 270 876 l 1
 185 969 l 1
EndSplineSet
EndChar

StartChar: nine
Encoding: 57 57 9
Width: 816
VWidth: 200
Flags: HW
LayerCount: 2
Fore
SplineSet
162 515 m 1
 158 510 l 1
 100 510 l 1
 136 924 l 1
 170 955 l 1
 255 862 l 1
 240 698 l 1
 231 590 l 1
 230 576 l 1
 162 515 l 1
582 562 m 1
 640 499 l 1
 574 438 l 1
 546 438 l 1
 510 438 l 1
 451 438 l 1
 420 500 l 1
 461 562 l 1
 520 562 l 1
 557 562 l 1
 582 562 l 1
654 485 m 1
 658 489 l 1
 716 489 l 1
 680 76 l 1
 646 45 l 1
 561 138 l 1
 562 144 l 1
 576 302 l 1
 584 396 l 1
 586 424 l 1
 654 485 l 1
726 955 m 1
 754 924 l 1
 718 510 l 1
 660 510 l 1
 656 514 l 1
 600 575 l 1
 601 586 l 1
 610 698 l 1
 624 856 l 1
 625 862 l 1
 726 955 l 1
631 31 m 1
 597 0 l 1
 426 0 l 1
 302 0 l 1
 131 0 l 1
 103 31 l 1
 204 124 l 1
 229 124 l 1
 313 124 l 1
 437 124 l 1
 521 124 l 1
 546 124 l 1
 631 31 l 1
185 969 m 1
 219 1000 l 1
 390 1000 l 1
 514 1000 l 1
 685 1000 l 1
 713 969 l 1
 612 876 l 1
 587 876 l 1
 503 876 l 1
 379 876 l 1
 295 876 l 1
 276 876 l 1
 270 876 l 1
 270 876 l 1
 185 969 l 1
365 562 m 1
 396 500 l 1
 355 438 l 1
 296 438 l 1
 259 438 l 1
 232 438 l 1
 175 500 l 1
 242 562 l 1
 269 562 l 1
 306 562 l 1
 365 562 l 1
EndSplineSet
EndChar

StartChar: A
Encoding: 65 65 10
Width: 816
VWidth: 200
Flags: HW
LayerCount: 2
Fore
SplineSet
162 515 m 1
 158 510 l 1
 100 510 l 1
 136 924 l 1
 170 955 l 1
 255 862 l 1
 240 698 l 1
 231 590 l 1
 230 576 l 1
 162 515 l 1
582 562 m 1
 640 499 l 1
 574 438 l 1
 546 438 l 1
 510 438 l 1
 451 438 l 1
 420 500 l 1
 461 562 l 1
 520 562 l 1
 557 562 l 1
 582 562 l 1
192 144 m 1
 191 138 l 1
 90 45 l 1
 62 76 l 1
 98 490 l 1
 156 490 l 1
 160 485 l 1
 216 424 l 1
 213 384 l 1
 206 302 l 1
 192 144 l 1
654 485 m 1
 658 489 l 1
 716 489 l 1
 680 76 l 1
 646 45 l 1
 561 138 l 1
 562 144 l 1
 576 302 l 1
 584 396 l 1
 586 424 l 1
 654 485 l 1
726 955 m 1
 754 924 l 1
 718 510 l 1
 660 510 l 1
 656 514 l 1
 600 575 l 1
 601 586 l 1
 610 698 l 1
 624 856 l 1
 625 862 l 1
 726 955 l 1
185 969 m 1
 219 1000 l 1
 390 1000 l 1
 514 1000 l 1
 685 1000 l 1
 713 969 l 1
 612 876 l 1
 587 876 l 1
 503 876 l 1
 379 876 l 1
 295 876 l 1
 276 876 l 1
 270 876 l 1
 270 876 l 1
 185 969 l 1
365 562 m 1
 396 500 l 1
 355 438 l 1
 296 438 l 1
 259 438 l 1
 232 438 l 1
 175 500 l 1
 242 562 l 1
 269 562 l 1
 306 562 l 1
 365 562 l 1
EndSplineSet
EndChar

StartChar: B
Encoding: 66 66 11
Width: 816
VWidth: 200
Flags: HW
LayerCount: 2
Fore
SplineSet
582 562 m 1
 640 499 l 1
 574 438 l 1
 546 438 l 1
 510 438 l 1
 451 438 l 1
 420 500 l 1
 461 562 l 1
 520 562 l 1
 557 562 l 1
 582 562 l 1
654 485 m 1
 658 489 l 1
 716 489 l 1
 680 76 l 1
 646 45 l 1
 561 138 l 1
 562 144 l 1
 576 302 l 1
 584 396 l 1
 586 424 l 1
 654 485 l 1
726 955 m 1
 754 924 l 1
 718 510 l 1
 660 510 l 1
 656 514 l 1
 600 575 l 1
 601 586 l 1
 610 698 l 1
 624 856 l 1
 625 862 l 1
 726 955 l 1
366 731 m 1
 377 856 l 1
 501 856 l 1
 490 731 l 1
 481 628 l 1
 410 521 l 1
 357 628 l 1
 366 731 l 1
631 31 m 1
 597 0 l 1
 426 0 l 1
 302 0 l 1
 131 0 l 1
 103 31 l 1
 204 124 l 1
 229 124 l 1
 313 124 l 1
 437 124 l 1
 521 124 l 1
 546 124 l 1
 631 31 l 1
185 969 m 1
 219 1000 l 1
 390 1000 l 1
 514 1000 l 1
 685 1000 l 1
 713 969 l 1
 612 876 l 1
 587 876 l 1
 503 876 l 1
 379 876 l 1
 295 876 l 1
 276 876 l 1
 270 876 l 1
 270 876 l 1
 185 969 l 1
450 269 m 1
 439 144 l 1
 315 144 l 1
 326 269 l 1
 335 372 l 1
 406 479 l 1
 459 372 l 1
 450 269 l 1
EndSplineSet
EndChar

StartChar: C
Encoding: 67 67 12
Width: 816
VWidth: 200
Flags: HW
LayerCount: 2
Fore
SplineSet
162 515 m 1
 158 510 l 1
 100 510 l 1
 136 924 l 1
 170 955 l 1
 255 862 l 1
 240 698 l 1
 231 590 l 1
 230 576 l 1
 162 515 l 1
192 144 m 1
 191 138 l 1
 90 45 l 1
 62 76 l 1
 98 490 l 1
 156 490 l 1
 160 485 l 1
 216 424 l 1
 213 384 l 1
 206 302 l 1
 192 144 l 1
631 31 m 1
 597 0 l 1
 426 0 l 1
 302 0 l 1
 131 0 l 1
 103 31 l 1
 204 124 l 1
 229 124 l 1
 313 124 l 1
 437 124 l 1
 521 124 l 1
 546 124 l 1
 631 31 l 1
185 969 m 1
 219 1000 l 1
 390 1000 l 1
 514 1000 l 1
 685 1000 l 1
 713 969 l 1
 612 876 l 1
 587 876 l 1
 503 876 l 1
 379 876 l 1
 295 876 l 1
 276 876 l 1
 270 876 l 1
 270 876 l 1
 185 969 l 1
EndSplineSet
EndChar

StartChar: D
Encoding: 68 68 13
Width: 816
VWidth: 200
Flags: HW
LayerCount: 2
Fore
SplineSet
654 485 m 1
 658 489 l 1
 716 489 l 1
 680 76 l 1
 646 45 l 1
 561 138 l 1
 562 144 l 1
 576 302 l 1
 584 396 l 1
 586 424 l 1
 654 485 l 1
726 955 m 1
 754 924 l 1
 718 510 l 1
 660 510 l 1
 656 514 l 1
 600 575 l 1
 601 586 l 1
 610 698 l 1
 624 856 l 1
 625 862 l 1
 726 955 l 1
366 731 m 1
 377 856 l 1
 501 856 l 1
 490 731 l 1
 481 628 l 1
 410 521 l 1
 357 628 l 1
 366 731 l 1
631 31 m 1
 597 0 l 1
 426 0 l 1
 302 0 l 1
 131 0 l 1
 103 31 l 1
 204 124 l 1
 229 124 l 1
 313 124 l 1
 437 124 l 1
 521 124 l 1
 546 124 l 1
 631 31 l 1
185 969 m 1
 219 1000 l 1
 390 1000 l 1
 514 1000 l 1
 685 1000 l 1
 713 969 l 1
 612 876 l 1
 587 876 l 1
 503 876 l 1
 379 876 l 1
 295 876 l 1
 276 876 l 1
 270 876 l 1
 270 876 l 1
 185 969 l 1
450 269 m 1
 439 144 l 1
 315 144 l 1
 326 269 l 1
 335 372 l 1
 406 479 l 1
 459 372 l 1
 450 269 l 1
EndSplineSet
EndChar

StartChar: E
Encoding: 69 69 14
Width: 816
VWidth: 200
Flags: HW
LayerCount: 2
Fore
SplineSet
162 515 m 1
 158 510 l 1
 100 510 l 1
 136 924 l 1
 170 955 l 1
 255 862 l 1
 240 698 l 1
 231 590 l 1
 230 576 l 1
 162 515 l 1
582 562 m 1
 640 499 l 1
 574 438 l 1
 546 438 l 1
 510 438 l 1
 451 438 l 1
 420 500 l 1
 461 562 l 1
 520 562 l 1
 557 562 l 1
 582 562 l 1
192 144 m 1
 191 138 l 1
 90 45 l 1
 62 76 l 1
 98 490 l 1
 156 490 l 1
 160 485 l 1
 216 424 l 1
 213 384 l 1
 206 302 l 1
 192 144 l 1
631 31 m 1
 597 0 l 1
 426 0 l 1
 302 0 l 1
 131 0 l 1
 103 31 l 1
 204 124 l 1
 229 124 l 1
 313 124 l 1
 437 124 l 1
 521 124 l 1
 546 124 l 1
 631 31 l 1
185 969 m 1
 219 1000 l 1
 390 1000 l 1
 514 1000 l 1
 685 1000 l 1
 713 969 l 1
 612 876 l 1
 587 876 l 1
 503 876 l 1
 379 876 l 1
 295 876 l 1
 276 876 l 1
 270 876 l 1
 270 876 l 1
 185 969 l 1
365 562 m 1
 396 500 l 1
 355 438 l 1
 296 438 l 1
 259 438 l 1
 232 438 l 1
 175 500 l 1
 242 562 l 1
 269 562 l 1
 306 562 l 1
 365 562 l 1
EndSplineSet
EndChar

StartChar: F
Encoding: 70 70 15
Width: 816
VWidth: 200
Flags: HW
LayerCount: 2
Fore
SplineSet
162 515 m 1
 158 510 l 1
 100 510 l 1
 136 924 l 1
 170 955 l 1
 255 862 l 1
 240 698 l 1
 231 590 l 1
 230 576 l 1
 162 515 l 1
582 562 m 1
 640 499 l 1
 574 438 l 1
 546 438 l 1
 510 438 l 1
 451 438 l 1
 420 500 l 1
 461 562 l 1
 520 562 l 1
 557 562 l 1
 582 562 l 1
192 144 m 1
 191 138 l 1
 90 45 l 1
 62 76 l 1
 98 490 l 1
 156 490 l 1
 160 485 l 1
 216 424 l 1
 213 384 l 1
 206 302 l 1
 192 144 l 1
185 969 m 1
 219 1000 l 1
 390 1000 l 1
 514 1000 l 1
 685 1000 l 1
 713 969 l 1
 612 876 l 1
 587 876 l 1
 503 876 l 1
 379 876 l 1
 295 876 l 1
 276 876 l 1
 270 876 l 1
 270 876 l 1
 185 969 l 1
365 562 m 1
 396 500 l 1
 355 438 l 1
 296 438 l 1
 259 438 l 1
 232 438 l 1
 175 500 l 1
 242 562 l 1
 269 562 l 1
 306 562 l 1
 365 562 l 1
EndSplineSet
EndChar

StartChar: G
Encoding: 71 71 16
Width: 816
VWidth: 200
Flags: HW
LayerCount: 2
Fore
SplineSet
162 515 m 1
 158 510 l 1
 100 510 l 1
 136 924 l 1
 170 955 l 1
 255 862 l 1
 240 698 l 1
 231 590 l 1
 230 576 l 1
 162 515 l 1
582 562 m 1
 640 499 l 1
 574 438 l 1
 546 438 l 1
 510 438 l 1
 451 438 l 1
 420 500 l 1
 461 562 l 1
 520 562 l 1
 557 562 l 1
 582 562 l 1
192 144 m 1
 191 138 l 1
 90 45 l 1
 62 76 l 1
 98 490 l 1
 156 490 l 1
 160 485 l 1
 216 424 l 1
 213 384 l 1
 206 302 l 1
 192 144 l 1
654 485 m 1
 658 489 l 1
 716 489 l 1
 680 76 l 1
 646 45 l 1
 561 138 l 1
 562 144 l 1
 576 302 l 1
 584 396 l 1
 586 424 l 1
 654 485 l 1
631 31 m 1
 597 0 l 1
 426 0 l 1
 302 0 l 1
 131 0 l 1
 103 31 l 1
 204 124 l 1
 229 124 l 1
 313 124 l 1
 437 124 l 1
 521 124 l 1
 546 124 l 1
 631 31 l 1
185 969 m 1
 219 1000 l 1
 390 1000 l 1
 514 1000 l 1
 685 1000 l 1
 713 969 l 1
 612 876 l 1
 587 876 l 1
 503 876 l 1
 379 876 l 1
 295 876 l 1
 276 876 l 1
 270 876 l 1
 270 876 l 1
 185 969 l 1
EndSplineSet
EndChar

StartChar: H
Encoding: 72 72 17
Width: 816
VWidth: 200
Flags: HW
LayerCount: 2
Fore
SplineSet
162 515 m 1
 158 510 l 1
 100 510 l 1
 136 924 l 1
 170 955 l 1
 255 862 l 1
 240 698 l 1
 231 590 l 1
 230 576 l 1
 162 515 l 1
582 562 m 1
 640 499 l 1
 574 438 l 1
 546 438 l 1
 510 438 l 1
 451 438 l 1
 420 500 l 1
 461 562 l 1
 520 562 l 1
 557 562 l 1
 582 562 l 1
192 144 m 1
 191 138 l 1
 90 45 l 1
 62 76 l 1
 98 490 l 1
 156 490 l 1
 160 485 l 1
 216 424 l 1
 213 384 l 1
 206 302 l 1
 192 144 l 1
654 485 m 1
 658 489 l 1
 716 489 l 1
 680 76 l 1
 646 45 l 1
 561 138 l 1
 562 144 l 1
 576 302 l 1
 584 396 l 1
 586 424 l 1
 654 485 l 1
726 955 m 1
 754 924 l 1
 718 510 l 1
 660 510 l 1
 656 514 l 1
 600 575 l 1
 601 586 l 1
 610 698 l 1
 624 856 l 1
 625 862 l 1
 726 955 l 1
365 562 m 1
 396 500 l 1
 355 438 l 1
 296 438 l 1
 259 438 l 1
 232 438 l 1
 175 500 l 1
 242 562 l 1
 269 562 l 1
 306 562 l 1
 365 562 l 1
EndSplineSet
EndChar

StartChar: I
Encoding: 73 73 18
Width: 816
VWidth: 200
Flags: HW
LayerCount: 2
Fore
SplineSet
366 731 m 1
 377 856 l 1
 501 856 l 1
 490 731 l 1
 481 628 l 1
 410 521 l 1
 357 628 l 1
 366 731 l 1
631 31 m 1
 597 0 l 1
 426 0 l 1
 302 0 l 1
 131 0 l 1
 103 31 l 1
 204 124 l 1
 229 124 l 1
 313 124 l 1
 437 124 l 1
 521 124 l 1
 546 124 l 1
 631 31 l 1
185 969 m 1
 219 1000 l 1
 390 1000 l 1
 514 1000 l 1
 685 1000 l 1
 713 969 l 1
 612 876 l 1
 587 876 l 1
 503 876 l 1
 379 876 l 1
 295 876 l 1
 276 876 l 1
 270 876 l 1
 270 876 l 1
 185 969 l 1
450 269 m 1
 439 144 l 1
 315 144 l 1
 326 269 l 1
 335 372 l 1
 406 479 l 1
 459 372 l 1
 450 269 l 1
EndSplineSet
EndChar

StartChar: J
Encoding: 74 74 19
Width: 816
VWidth: 200
Flags: HW
LayerCount: 2
Fore
SplineSet
192 144 m 1
 191 138 l 1
 90 45 l 1
 62 76 l 1
 98 490 l 1
 156 490 l 1
 160 485 l 1
 216 424 l 1
 213 384 l 1
 206 302 l 1
 192 144 l 1
654 485 m 1
 658 489 l 1
 716 489 l 1
 680 76 l 1
 646 45 l 1
 561 138 l 1
 562 144 l 1
 576 302 l 1
 584 396 l 1
 586 424 l 1
 654 485 l 1
726 955 m 1
 754 924 l 1
 718 510 l 1
 660 510 l 1
 656 514 l 1
 600 575 l 1
 601 586 l 1
 610 698 l 1
 624 856 l 1
 625 862 l 1
 726 955 l 1
631 31 m 1
 597 0 l 1
 426 0 l 1
 302 0 l 1
 131 0 l 1
 103 31 l 1
 204 124 l 1
 229 124 l 1
 313 124 l 1
 437 124 l 1
 521 124 l 1
 546 124 l 1
 631 31 l 1
EndSplineSet
EndChar

StartChar: K
Encoding: 75 75 20
Width: 816
VWidth: 200
Flags: HW
LayerCount: 2
Fore
SplineSet
162 515 m 1
 158 510 l 1
 100 510 l 1
 136 924 l 1
 170 955 l 1
 255 862 l 1
 240 698 l 1
 231 590 l 1
 230 576 l 1
 162 515 l 1
192 144 m 1
 191 138 l 1
 90 45 l 1
 62 76 l 1
 98 490 l 1
 156 490 l 1
 160 485 l 1
 216 424 l 1
 213 384 l 1
 206 302 l 1
 192 144 l 1
513 766 m 1
 573 856 l 1
 604 856 l 1
 587 662 l 1
 534 582 l 1
 497 582 l 1
 513 766 l 1
559 338 m 1
 542 144 l 1
 511 144 l 1
 467 234 l 1
 483 418 l 1
 520 418 l 1
 559 338 l 1
365 562 m 1
 396 500 l 1
 355 438 l 1
 296 438 l 1
 259 438 l 1
 232 438 l 1
 175 500 l 1
 242 562 l 1
 269 562 l 1
 306 562 l 1
 365 562 l 1
EndSplineSet
EndChar

StartChar: L
Encoding: 76 76 21
Width: 816
VWidth: 200
Flags: HW
LayerCount: 2
Fore
SplineSet
162 515 m 1
 158 510 l 1
 100 510 l 1
 136 924 l 1
 170 955 l 1
 255 862 l 1
 240 698 l 1
 231 590 l 1
 230 576 l 1
 162 515 l 1
192 144 m 1
 191 138 l 1
 90 45 l 1
 62 76 l 1
 98 490 l 1
 156 490 l 1
 160 485 l 1
 216 424 l 1
 213 384 l 1
 206 302 l 1
 192 144 l 1
631 31 m 1
 597 0 l 1
 426 0 l 1
 302 0 l 1
 131 0 l 1
 103 31 l 1
 204 124 l 1
 229 124 l 1
 313 124 l 1
 437 124 l 1
 521 124 l 1
 546 124 l 1
 631 31 l 1
EndSplineSet
EndChar

StartChar: M
Encoding: 77 77 22
Width: 816
VWidth: 200
Flags: HW
LayerCount: 2
Fore
SplineSet
162 515 m 1
 158 510 l 1
 100 510 l 1
 136 924 l 1
 170 955 l 1
 255 862 l 1
 240 698 l 1
 231 590 l 1
 230 576 l 1
 162 515 l 1
192 144 m 1
 191 138 l 1
 90 45 l 1
 62 76 l 1
 98 490 l 1
 156 490 l 1
 160 485 l 1
 216 424 l 1
 213 384 l 1
 206 302 l 1
 192 144 l 1
654 485 m 1
 658 489 l 1
 716 489 l 1
 680 76 l 1
 646 45 l 1
 561 138 l 1
 562 144 l 1
 576 302 l 1
 584 396 l 1
 586 424 l 1
 654 485 l 1
513 766 m 1
 573 856 l 1
 604 856 l 1
 587 662 l 1
 534 582 l 1
 497 582 l 1
 513 766 l 1
726 955 m 1
 754 924 l 1
 718 510 l 1
 660 510 l 1
 656 514 l 1
 600 575 l 1
 601 586 l 1
 610 698 l 1
 624 856 l 1
 625 862 l 1
 726 955 l 1
450 269 m 1
 439 144 l 1
 315 144 l 1
 326 269 l 1
 335 372 l 1
 406 479 l 1
 459 372 l 1
 450 269 l 1
257 662 m 1
 274 856 l 1
 305 856 l 1
 349 766 l 1
 333 582 l 1
 296 582 l 1
 257 662 l 1
EndSplineSet
EndChar

StartChar: N
Encoding: 78 78 23
Width: 816
VWidth: 200
Flags: HW
LayerCount: 2
Fore
SplineSet
162 515 m 1
 158 510 l 1
 100 510 l 1
 136 924 l 1
 170 955 l 1
 255 862 l 1
 240 698 l 1
 231 590 l 1
 230 576 l 1
 162 515 l 1
192 144 m 1
 191 138 l 1
 90 45 l 1
 62 76 l 1
 98 490 l 1
 156 490 l 1
 160 485 l 1
 216 424 l 1
 213 384 l 1
 206 302 l 1
 192 144 l 1
654 485 m 1
 658 489 l 1
 716 489 l 1
 680 76 l 1
 646 45 l 1
 561 138 l 1
 562 144 l 1
 576 302 l 1
 584 396 l 1
 586 424 l 1
 654 485 l 1
726 955 m 1
 754 924 l 1
 718 510 l 1
 660 510 l 1
 656 514 l 1
 600 575 l 1
 601 586 l 1
 610 698 l 1
 624 856 l 1
 625 862 l 1
 726 955 l 1
559 338 m 1
 542 144 l 1
 511 144 l 1
 467 234 l 1
 483 418 l 1
 520 418 l 1
 559 338 l 1
257 662 m 1
 274 856 l 1
 305 856 l 1
 349 766 l 1
 333 582 l 1
 296 582 l 1
 257 662 l 1
EndSplineSet
EndChar

StartChar: O
Encoding: 79 79 24
Width: 816
VWidth: 200
Flags: HW
LayerCount: 2
Fore
SplineSet
162 515 m 1
 158 510 l 1
 100 510 l 1
 136 924 l 1
 170 955 l 1
 255 862 l 1
 240 698 l 1
 231 590 l 1
 230 576 l 1
 162 515 l 1
192 144 m 1
 191 138 l 1
 90 45 l 1
 62 76 l 1
 98 490 l 1
 156 490 l 1
 160 485 l 1
 216 424 l 1
 213 384 l 1
 206 302 l 1
 192 144 l 1
654 485 m 1
 658 489 l 1
 716 489 l 1
 680 76 l 1
 646 45 l 1
 561 138 l 1
 562 144 l 1
 576 302 l 1
 584 396 l 1
 586 424 l 1
 654 485 l 1
726 955 m 1
 754 924 l 1
 718 510 l 1
 660 510 l 1
 656 514 l 1
 600 575 l 1
 601 586 l 1
 610 698 l 1
 624 856 l 1
 625 862 l 1
 726 955 l 1
631 31 m 1
 597 0 l 1
 426 0 l 1
 302 0 l 1
 131 0 l 1
 103 31 l 1
 204 124 l 1
 229 124 l 1
 313 124 l 1
 437 124 l 1
 521 124 l 1
 546 124 l 1
 631 31 l 1
185 969 m 1
 219 1000 l 1
 390 1000 l 1
 514 1000 l 1
 685 1000 l 1
 713 969 l 1
 612 876 l 1
 587 876 l 1
 503 876 l 1
 379 876 l 1
 295 876 l 1
 276 876 l 1
 270 876 l 1
 270 876 l 1
 185 969 l 1
EndSplineSet
EndChar

StartChar: P
Encoding: 80 80 25
Width: 816
VWidth: 200
Flags: HW
LayerCount: 2
Fore
SplineSet
162 515 m 1
 158 510 l 1
 100 510 l 1
 136 924 l 1
 170 955 l 1
 255 862 l 1
 240 698 l 1
 231 590 l 1
 230 576 l 1
 162 515 l 1
582 562 m 1
 640 499 l 1
 574 438 l 1
 546 438 l 1
 510 438 l 1
 451 438 l 1
 420 500 l 1
 461 562 l 1
 520 562 l 1
 557 562 l 1
 582 562 l 1
192 144 m 1
 191 138 l 1
 90 45 l 1
 62 76 l 1
 98 490 l 1
 156 490 l 1
 160 485 l 1
 216 424 l 1
 213 384 l 1
 206 302 l 1
 192 144 l 1
726 955 m 1
 754 924 l 1
 718 510 l 1
 660 510 l 1
 656 514 l 1
 600 575 l 1
 601 586 l 1
 610 698 l 1
 624 856 l 1
 625 862 l 1
 726 955 l 1
185 969 m 1
 219 1000 l 1
 390 1000 l 1
 514 1000 l 1
 685 1000 l 1
 713 969 l 1
 612 876 l 1
 587 876 l 1
 503 876 l 1
 379 876 l 1
 295 876 l 1
 276 876 l 1
 270 876 l 1
 270 876 l 1
 185 969 l 1
365 562 m 1
 396 500 l 1
 355 438 l 1
 296 438 l 1
 259 438 l 1
 232 438 l 1
 175 500 l 1
 242 562 l 1
 269 562 l 1
 306 562 l 1
 365 562 l 1
EndSplineSet
EndChar

StartChar: Q
Encoding: 81 81 26
Width: 816
VWidth: 200
Flags: HW
LayerCount: 2
Fore
SplineSet
162 515 m 1
 158 510 l 1
 100 510 l 1
 136 924 l 1
 170 955 l 1
 255 862 l 1
 240 698 l 1
 231 590 l 1
 230 576 l 1
 162 515 l 1
192 144 m 1
 191 138 l 1
 90 45 l 1
 62 76 l 1
 98 490 l 1
 156 490 l 1
 160 485 l 1
 216 424 l 1
 213 384 l 1
 206 302 l 1
 192 144 l 1
654 485 m 1
 658 489 l 1
 716 489 l 1
 680 76 l 1
 646 45 l 1
 561 138 l 1
 562 144 l 1
 576 302 l 1
 584 396 l 1
 586 424 l 1
 654 485 l 1
726 955 m 1
 754 924 l 1
 718 510 l 1
 660 510 l 1
 656 514 l 1
 600 575 l 1
 601 586 l 1
 610 698 l 1
 624 856 l 1
 625 862 l 1
 726 955 l 1
559 338 m 1
 542 144 l 1
 511 144 l 1
 467 234 l 1
 483 418 l 1
 520 418 l 1
 559 338 l 1
631 31 m 1
 597 0 l 1
 426 0 l 1
 302 0 l 1
 131 0 l 1
 103 31 l 1
 204 124 l 1
 229 124 l 1
 313 124 l 1
 437 124 l 1
 521 124 l 1
 546 124 l 1
 631 31 l 1
185 969 m 1
 219 1000 l 1
 390 1000 l 1
 514 1000 l 1
 685 1000 l 1
 713 969 l 1
 612 876 l 1
 587 876 l 1
 503 876 l 1
 379 876 l 1
 295 876 l 1
 276 876 l 1
 270 876 l 1
 270 876 l 1
 185 969 l 1
EndSplineSet
EndChar

StartChar: R
Encoding: 82 82 27
Width: 816
VWidth: 200
Flags: HW
LayerCount: 2
Fore
SplineSet
162 515 m 1
 158 510 l 1
 100 510 l 1
 136 924 l 1
 170 955 l 1
 255 862 l 1
 240 698 l 1
 231 590 l 1
 230 576 l 1
 162 515 l 1
582 562 m 1
 640 499 l 1
 574 438 l 1
 546 438 l 1
 510 438 l 1
 451 438 l 1
 420 500 l 1
 461 562 l 1
 520 562 l 1
 557 562 l 1
 582 562 l 1
192 144 m 1
 191 138 l 1
 90 45 l 1
 62 76 l 1
 98 490 l 1
 156 490 l 1
 160 485 l 1
 216 424 l 1
 213 384 l 1
 206 302 l 1
 192 144 l 1
726 955 m 1
 754 924 l 1
 718 510 l 1
 660 510 l 1
 656 514 l 1
 600 575 l 1
 601 586 l 1
 610 698 l 1
 624 856 l 1
 625 862 l 1
 726 955 l 1
559 338 m 1
 542 144 l 1
 511 144 l 1
 467 234 l 1
 483 418 l 1
 520 418 l 1
 559 338 l 1
185 969 m 1
 219 1000 l 1
 390 1000 l 1
 514 1000 l 1
 685 1000 l 1
 713 969 l 1
 612 876 l 1
 587 876 l 1
 503 876 l 1
 379 876 l 1
 295 876 l 1
 276 876 l 1
 270 876 l 1
 270 876 l 1
 185 969 l 1
365 562 m 1
 396 500 l 1
 355 438 l 1
 296 438 l 1
 259 438 l 1
 232 438 l 1
 175 500 l 1
 242 562 l 1
 269 562 l 1
 306 562 l 1
 365 562 l 1
EndSplineSet
EndChar

StartChar: S
Encoding: 83 83 28
Width: 816
VWidth: 200
Flags: HW
LayerCount: 2
Fore
SplineSet
162 515 m 1
 158 510 l 1
 100 510 l 1
 136 924 l 1
 170 955 l 1
 255 862 l 1
 240 698 l 1
 231 590 l 1
 230 576 l 1
 162 515 l 1
582 562 m 1
 640 499 l 1
 574 438 l 1
 546 438 l 1
 510 438 l 1
 451 438 l 1
 420 500 l 1
 461 562 l 1
 520 562 l 1
 557 562 l 1
 582 562 l 1
654 485 m 1
 658 489 l 1
 716 489 l 1
 680 76 l 1
 646 45 l 1
 561 138 l 1
 562 144 l 1
 576 302 l 1
 584 396 l 1
 586 424 l 1
 654 485 l 1
559 338 m 1
 542 144 l 1
 511 144 l 1
 467 234 l 1
 483 418 l 1
 520 418 l 1
 559 338 l 1
631 31 m 1
 597 0 l 1
 426 0 l 1
 302 0 l 1
 131 0 l 1
 103 31 l 1
 204 124 l 1
 229 124 l 1
 313 124 l 1
 437 124 l 1
 521 124 l 1
 546 124 l 1
 631 31 l 1
185 969 m 1
 219 1000 l 1
 390 1000 l 1
 514 1000 l 1
 685 1000 l 1
 713 969 l 1
 612 876 l 1
 587 876 l 1
 503 876 l 1
 379 876 l 1
 295 876 l 1
 276 876 l 1
 270 876 l 1
 270 876 l 1
 185 969 l 1
365 562 m 1
 396 500 l 1
 355 438 l 1
 296 438 l 1
 259 438 l 1
 232 438 l 1
 175 500 l 1
 242 562 l 1
 269 562 l 1
 306 562 l 1
 365 562 l 1
257 662 m 1
 274 856 l 1
 305 856 l 1
 349 766 l 1
 333 582 l 1
 296 582 l 1
 257 662 l 1
EndSplineSet
EndChar

StartChar: T
Encoding: 84 84 29
Width: 816
VWidth: 200
Flags: HW
LayerCount: 2
Fore
SplineSet
366 731 m 1
 377 856 l 1
 501 856 l 1
 490 731 l 1
 481 628 l 1
 410 521 l 1
 357 628 l 1
 366 731 l 1
185 969 m 1
 219 1000 l 1
 390 1000 l 1
 514 1000 l 1
 685 1000 l 1
 713 969 l 1
 612 876 l 1
 587 876 l 1
 503 876 l 1
 379 876 l 1
 295 876 l 1
 276 876 l 1
 270 876 l 1
 270 876 l 1
 185 969 l 1
450 269 m 1
 439 144 l 1
 315 144 l 1
 326 269 l 1
 335 372 l 1
 406 479 l 1
 459 372 l 1
 450 269 l 1
EndSplineSet
EndChar

StartChar: U
Encoding: 85 85 30
Width: 816
VWidth: 200
Flags: HW
LayerCount: 2
Fore
SplineSet
162 515 m 1
 158 510 l 1
 100 510 l 1
 136 924 l 1
 170 955 l 1
 255 862 l 1
 240 698 l 1
 231 590 l 1
 230 576 l 1
 162 515 l 1
192 144 m 1
 191 138 l 1
 90 45 l 1
 62 76 l 1
 98 490 l 1
 156 490 l 1
 160 485 l 1
 216 424 l 1
 213 384 l 1
 206 302 l 1
 192 144 l 1
654 485 m 1
 658 489 l 1
 716 489 l 1
 680 76 l 1
 646 45 l 1
 561 138 l 1
 562 144 l 1
 576 302 l 1
 584 396 l 1
 586 424 l 1
 654 485 l 1
726 955 m 1
 754 924 l 1
 718 510 l 1
 660 510 l 1
 656 514 l 1
 600 575 l 1
 601 586 l 1
 610 698 l 1
 624 856 l 1
 625 862 l 1
 726 955 l 1
631 31 m 1
 597 0 l 1
 426 0 l 1
 302 0 l 1
 131 0 l 1
 103 31 l 1
 204 124 l 1
 229 124 l 1
 313 124 l 1
 437 124 l 1
 521 124 l 1
 546 124 l 1
 631 31 l 1
EndSplineSet
EndChar

StartChar: V
Encoding: 86 86 31
Width: 816
VWidth: 200
Flags: HW
LayerCount: 2
Fore
SplineSet
162 515 m 1
 158 510 l 1
 100 510 l 1
 136 924 l 1
 170 955 l 1
 255 862 l 1
 240 698 l 1
 231 590 l 1
 230 576 l 1
 162 515 l 1
192 144 m 1
 191 138 l 1
 90 45 l 1
 62 76 l 1
 98 490 l 1
 156 490 l 1
 160 485 l 1
 216 424 l 1
 213 384 l 1
 206 302 l 1
 192 144 l 1
513 766 m 1
 573 856 l 1
 604 856 l 1
 587 662 l 1
 534 582 l 1
 497 582 l 1
 513 766 l 1
303 234 m 1
 243 144 l 1
 212 144 l 1
 229 338 l 1
 282 418 l 1
 319 418 l 1
 303 234 l 1
EndSplineSet
EndChar

StartChar: W
Encoding: 87 87 32
Width: 816
VWidth: 200
Flags: HW
LayerCount: 2
Fore
SplineSet
162 515 m 1
 158 510 l 1
 100 510 l 1
 136 924 l 1
 170 955 l 1
 255 862 l 1
 240 698 l 1
 231 590 l 1
 230 576 l 1
 162 515 l 1
192 144 m 1
 191 138 l 1
 90 45 l 1
 62 76 l 1
 98 490 l 1
 156 490 l 1
 160 485 l 1
 216 424 l 1
 213 384 l 1
 206 302 l 1
 192 144 l 1
654 485 m 1
 658 489 l 1
 716 489 l 1
 680 76 l 1
 646 45 l 1
 561 138 l 1
 562 144 l 1
 576 302 l 1
 584 396 l 1
 586 424 l 1
 654 485 l 1
726 955 m 1
 754 924 l 1
 718 510 l 1
 660 510 l 1
 656 514 l 1
 600 575 l 1
 601 586 l 1
 610 698 l 1
 624 856 l 1
 625 862 l 1
 726 955 l 1
366 731 m 1
 377 856 l 1
 501 856 l 1
 490 731 l 1
 481 628 l 1
 410 521 l 1
 357 628 l 1
 366 731 l 1
559 338 m 1
 542 144 l 1
 511 144 l 1
 467 234 l 1
 483 418 l 1
 520 418 l 1
 559 338 l 1
303 234 m 1
 243 144 l 1
 212 144 l 1
 229 338 l 1
 282 418 l 1
 319 418 l 1
 303 234 l 1
EndSplineSet
EndChar

StartChar: X
Encoding: 88 88 33
Width: 816
VWidth: 200
Flags: HW
LayerCount: 2
Fore
SplineSet
513 766 m 1
 573 856 l 1
 604 856 l 1
 587 662 l 1
 534 582 l 1
 497 582 l 1
 513 766 l 1
559 338 m 1
 542 144 l 1
 511 144 l 1
 467 234 l 1
 483 418 l 1
 520 418 l 1
 559 338 l 1
303 234 m 1
 243 144 l 1
 212 144 l 1
 229 338 l 1
 282 418 l 1
 319 418 l 1
 303 234 l 1
257 662 m 1
 274 856 l 1
 305 856 l 1
 349 766 l 1
 333 582 l 1
 296 582 l 1
 257 662 l 1
EndSplineSet
EndChar

StartChar: Y
Encoding: 89 89 34
Width: 816
VWidth: 200
Flags: HW
LayerCount: 2
Fore
SplineSet
513 766 m 1
 573 856 l 1
 604 856 l 1
 587 662 l 1
 534 582 l 1
 497 582 l 1
 513 766 l 1
450 269 m 1
 439 144 l 1
 315 144 l 1
 326 269 l 1
 335 372 l 1
 406 479 l 1
 459 372 l 1
 450 269 l 1
257 662 m 1
 274 856 l 1
 305 856 l 1
 349 766 l 1
 333 582 l 1
 296 582 l 1
 257 662 l 1
EndSplineSet
EndChar

StartChar: Z
Encoding: 90 90 35
Width: 816
VWidth: 200
Flags: HW
LayerCount: 2
Fore
SplineSet
513 766 m 1
 573 856 l 1
 604 856 l 1
 587 662 l 1
 534 582 l 1
 497 582 l 1
 513 766 l 1
631 31 m 1
 597 0 l 1
 426 0 l 1
 302 0 l 1
 131 0 l 1
 103 31 l 1
 204 124 l 1
 229 124 l 1
 313 124 l 1
 437 124 l 1
 521 124 l 1
 546 124 l 1
 631 31 l 1
185 969 m 1
 219 1000 l 1
 390 1000 l 1
 514 1000 l 1
 685 1000 l 1
 713 969 l 1
 612 876 l 1
 587 876 l 1
 503 876 l 1
 379 876 l 1
 295 876 l 1
 276 876 l 1
 270 876 l 1
 270 876 l 1
 185 969 l 1
303 234 m 1
 243 144 l 1
 212 144 l 1
 229 338 l 1
 282 418 l 1
 319 418 l 1
 303 234 l 1
EndSplineSet
EndChar

StartChar: hyphen
Encoding: 45 45 36
Width: 816
VWidth: 200
Flags: HW
LayerCount: 2
Fore
SplineSet
582 562 m 1
 640 499 l 1
 574 438 l 1
 546 438 l 1
 510 438 l 1
 451 438 l 1
 420 500 l 1
 461 562 l 1
 520 562 l 1
 557 562 l 1
 582 562 l 1
365 562 m 1
 396 500 l 1
 355 438 l 1
 296 438 l 1
 259 438 l 1
 232 438 l 1
 175 500 l 1
 242 562 l 1
 269 562 l 1
 306 562 l 1
 365 562 l 1
EndSplineSet
EndChar

StartChar: colon
Encoding: 58 58 37
Width: 200
VWidth: 0
Flags: HW
LayerCount: 2
Fore
SplineSet
222 693 m 0
 221 684 219 676 215 669 c 0
 211 662 206 655 200 649 c 0
 194 643 188 639 180 636 c 0
 172 633 164 631 155 631 c 0
 146 631 139 633 132 636 c 0
 125 639 118 643 113 649 c 0
 108 655 104 662 102 669 c 0
 100 676 98 684 99 693 c 0
 100 702 102 710 106 717 c 0
 110 724 115 730 121 736 c 0
 127 742 134 747 142 750 c 0
 150 753 157 754 166 754 c 0
 175 754 183 753 190 750 c 0
 197 747 203 742 208 736 c 0
 213 730 218 724 220 717 c 0
 222 710 223 702 222 693 c 0
186 281 m 0
 185 272 183 264 179 257 c 0
 175 250 170 243 164 237 c 0
 158 231 152 227 144 224 c 0
 136 221 128 219 119 219 c 0
 110 219 103 221 96 224 c 0
 89 227 82 231 77 237 c 0
 72 243 67 250 65 257 c 0
 63 264 62 272 63 281 c 0
 64 290 66 298 70 305 c 0
 74 312 79 318 85 324 c 0
 91 330 97 335 105 338 c 0
 113 341 121 342 130 342 c 0
 139 342 147 341 154 338 c 0
 161 335 167 330 172 324 c 0
 177 318 182 312 184 305 c 0
 186 298 187 290 186 281 c 0
EndSplineSet
EndChar

StartChar: period
Encoding: 46 46 38
Width: -44
VWidth: 200
Flags: HW
LayerCount: 2
Fore
SplineSet
18 62 m 0
 18 53 16 45 13 38 c 0
 10 31 6 24 0 18 c 0
 -6 12 -13 8 -20 5 c 0
 -27 2 -35 0 -44 0 c 0
 -53 0 -61 2 -68 5 c 0
 -75 8 -82 12 -88 18 c 0
 -94 24 -98 31 -101 38 c 0
 -104 45 -106 53 -106 62 c 0
 -106 71 -104 79 -101 86 c 0
 -98 93 -94 100 -88 106 c 0
 -82 112 -75 116 -68 119 c 0
 -61 122 -53 124 -44 124 c 0
 -35 124 -27 122 -20 119 c 0
 -13 116 -6 112 0 106 c 0
 6 100 10 93 13 86 c 0
 16 79 18 71 18 62 c 0
EndSplineSet
EndChar

StartChar: less
Encoding: 60 60 39
Width: 816
VWidth: 200
Flags: HW
LayerCount: 2
Fore
SplineSet
513 766 m 1
 573 856 l 1
 604 856 l 1
 587 662 l 1
 534 582 l 1
 497 582 l 1
 513 766 l 1
631 31 m 1
 597 0 l 1
 426 0 l 1
 302 0 l 1
 131 0 l 1
 103 31 l 1
 204 124 l 1
 229 124 l 1
 313 124 l 1
 437 124 l 1
 521 124 l 1
 546 124 l 1
 631 31 l 1
303 234 m 1
 243 144 l 1
 212 144 l 1
 229 338 l 1
 282 418 l 1
 319 418 l 1
 303 234 l 1
EndSplineSet
EndChar

StartChar: equal
Encoding: 61 61 40
Width: 816
VWidth: 200
Flags: HW
LayerCount: 2
Fore
SplineSet
582 562 m 1
 640 499 l 1
 574 438 l 1
 546 438 l 1
 510 438 l 1
 451 438 l 1
 420 500 l 1
 461 562 l 1
 520 562 l 1
 557 562 l 1
 582 562 l 1
631 31 m 1
 597 0 l 1
 426 0 l 1
 302 0 l 1
 131 0 l 1
 103 31 l 1
 204 124 l 1
 229 124 l 1
 313 124 l 1
 437 124 l 1
 521 124 l 1
 546 124 l 1
 631 31 l 1
365 562 m 1
 396 500 l 1
 355 438 l 1
 296 438 l 1
 259 438 l 1
 232 438 l 1
 175 500 l 1
 242 562 l 1
 269 562 l 1
 306 562 l 1
 365 562 l 1
EndSplineSet
EndChar

StartChar: greater
Encoding: 62 62 41
Width: 816
VWidth: 200
Flags: HW
LayerCount: 2
Fore
SplineSet
559 338 m 1
 542 144 l 1
 511 144 l 1
 467 234 l 1
 483 418 l 1
 520 418 l 1
 559 338 l 1
631 31 m 1
 597 0 l 1
 426 0 l 1
 302 0 l 1
 131 0 l 1
 103 31 l 1
 204 124 l 1
 229 124 l 1
 313 124 l 1
 437 124 l 1
 521 124 l 1
 546 124 l 1
 631 31 l 1
257 662 m 1
 274 856 l 1
 305 856 l 1
 349 766 l 1
 333 582 l 1
 296 582 l 1
 257 662 l 1
EndSplineSet
EndChar

StartChar: question
Encoding: 63 63 42
Width: 816
VWidth: 200
Flags: HW
LayerCount: 2
Fore
SplineSet
162 515 m 1
 158 510 l 1
 100 510 l 1
 136 924 l 1
 170 955 l 1
 255 862 l 1
 240 698 l 1
 231 590 l 1
 230 576 l 1
 162 515 l 1
582 562 m 1
 640 499 l 1
 574 438 l 1
 546 438 l 1
 510 438 l 1
 451 438 l 1
 420 500 l 1
 461 562 l 1
 520 562 l 1
 557 562 l 1
 582 562 l 1
726 955 m 1
 754 924 l 1
 718 510 l 1
 660 510 l 1
 656 514 l 1
 600 575 l 1
 601 586 l 1
 610 698 l 1
 624 856 l 1
 625 862 l 1
 726 955 l 1
185 969 m 1
 219 1000 l 1
 390 1000 l 1
 514 1000 l 1
 685 1000 l 1
 713 969 l 1
 612 876 l 1
 587 876 l 1
 503 876 l 1
 379 876 l 1
 295 876 l 1
 276 876 l 1
 270 876 l 1
 270 876 l 1
 185 969 l 1
450 269 m 1
 439 144 l 1
 315 144 l 1
 326 269 l 1
 335 372 l 1
 406 479 l 1
 459 372 l 1
 450 269 l 1
EndSplineSet
EndChar

StartChar: at
Encoding: 64 64 43
Width: 816
VWidth: 200
Flags: HW
LayerCount: 2
Fore
SplineSet
162 515 m 1
 158 510 l 1
 100 510 l 1
 136 924 l 1
 170 955 l 1
 255 862 l 1
 240 698 l 1
 231 590 l 1
 230 576 l 1
 162 515 l 1
582 562 m 1
 640 499 l 1
 574 438 l 1
 546 438 l 1
 510 438 l 1
 451 438 l 1
 420 500 l 1
 461 562 l 1
 520 562 l 1
 557 562 l 1
 582 562 l 1
192 144 m 1
 191 138 l 1
 90 45 l 1
 62 76 l 1
 98 490 l 1
 156 490 l 1
 160 485 l 1
 216 424 l 1
 213 384 l 1
 206 302 l 1
 192 144 l 1
654 485 m 1
 658 489 l 1
 716 489 l 1
 680 76 l 1
 646 45 l 1
 561 138 l 1
 562 144 l 1
 576 302 l 1
 584 396 l 1
 586 424 l 1
 654 485 l 1
726 955 m 1
 754 924 l 1
 718 510 l 1
 660 510 l 1
 656 514 l 1
 600 575 l 1
 601 586 l 1
 610 698 l 1
 624 856 l 1
 625 862 l 1
 726 955 l 1
631 31 m 1
 597 0 l 1
 426 0 l 1
 302 0 l 1
 131 0 l 1
 103 31 l 1
 204 124 l 1
 229 124 l 1
 313 124 l 1
 437 124 l 1
 521 124 l 1
 546 124 l 1
 631 31 l 1
185 969 m 1
 219 1000 l 1
 390 1000 l 1
 514 1000 l 1
 685 1000 l 1
 713 969 l 1
 612 876 l 1
 587 876 l 1
 503 876 l 1
 379 876 l 1
 295 876 l 1
 276 876 l 1
 270 876 l 1
 270 876 l 1
 185 969 l 1
450 269 m 1
 439 144 l 1
 315 144 l 1
 326 269 l 1
 335 372 l 1
 406 479 l 1
 459 372 l 1
 450 269 l 1
EndSplineSet
EndChar

StartChar: backslash
Encoding: 92 92 44
Width: 816
VWidth: 200
Flags: HW
LayerCount: 2
Fore
SplineSet
559 338 m 1
 542 144 l 1
 511 144 l 1
 467 234 l 1
 483 418 l 1
 520 418 l 1
 559 338 l 1
257 662 m 1
 274 856 l 1
 305 856 l 1
 349 766 l 1
 333 582 l 1
 296 582 l 1
 257 662 l 1
EndSplineSet
EndChar

StartChar: asciicircum
Encoding: 94 94 45
Width: 816
VWidth: 200
Flags: HW
LayerCount: 2
Fore
SplineSet
162 515 m 1
 158 510 l 1
 100 510 l 1
 136 924 l 1
 170 955 l 1
 255 862 l 1
 240 698 l 1
 231 590 l 1
 230 576 l 1
 162 515 l 1
257 662 m 1
 274 856 l 1
 305 856 l 1
 349 766 l 1
 333 582 l 1
 296 582 l 1
 257 662 l 1
EndSplineSet
EndChar

StartChar: underscore
Encoding: 95 95 46
Width: 816
VWidth: 200
Flags: HW
LayerCount: 2
Fore
SplineSet
631 31 m 1
 597 0 l 1
 426 0 l 1
 302 0 l 1
 131 0 l 1
 103 31 l 1
 204 124 l 1
 229 124 l 1
 313 124 l 1
 437 124 l 1
 521 124 l 1
 546 124 l 1
 631 31 l 1
EndSplineSet
EndChar

StartChar: yen
Encoding: 165 165 47
Width: 816
VWidth: 200
Flags: HW
LayerCount: 2
Fore
SplineSet
582 562 m 1
 640 499 l 1
 574 438 l 1
 546 438 l 1
 510 438 l 1
 451 438 l 1
 420 500 l 1
 461 562 l 1
 520 562 l 1
 557 562 l 1
 582 562 l 1
513 766 m 1
 573 856 l 1
 604 856 l 1
 587 662 l 1
 534 582 l 1
 497 582 l 1
 513 766 l 1
365 562 m 1
 396 500 l 1
 355 438 l 1
 296 438 l 1
 259 438 l 1
 232 438 l 1
 175 500 l 1
 242 562 l 1
 269 562 l 1
 306 562 l 1
 365 562 l 1
450 269 m 1
 439 144 l 1
 315 144 l 1
 326 269 l 1
 335 372 l 1
 406 479 l 1
 459 372 l 1
 450 269 l 1
257 662 m 1
 274 856 l 1
 305 856 l 1
 349 766 l 1
 333 582 l 1
 296 582 l 1
 257 662 l 1
EndSplineSet
EndChar

StartChar: quotedbl
Encoding: 34 34 48
Width: 816
VWidth: 200
Flags: HW
LayerCount: 2
Fore
SplineSet
162 515 m 1
 158 510 l 1
 100 510 l 1
 136 924 l 1
 170 955 l 1
 255 862 l 1
 240 698 l 1
 231 590 l 1
 230 576 l 1
 162 515 l 1
366 731 m 1
 377 856 l 1
 501 856 l 1
 490 731 l 1
 481 628 l 1
 410 521 l 1
 357 628 l 1
 366 731 l 1
EndSplineSet
EndChar

StartChar: quotesingle
Encoding: 39 39 49
Width: 816
VWidth: 200
Flags: HW
LayerCount: 2
Fore
SplineSet
366 731 m 1
 377 856 l 1
 501 856 l 1
 490 731 l 1
 481 628 l 1
 410 521 l 1
 357 628 l 1
 366 731 l 1
EndSplineSet
EndChar

StartChar: parenleft
Encoding: 40 40 50
Width: 816
VWidth: 200
Flags: HW
LayerCount: 2
Fore
SplineSet
513 766 m 1
 573 856 l 1
 604 856 l 1
 587 662 l 1
 534 582 l 1
 497 582 l 1
 513 766 l 1
559 338 m 1
 542 144 l 1
 511 144 l 1
 467 234 l 1
 483 418 l 1
 520 418 l 1
 559 338 l 1
EndSplineSet
EndChar

StartChar: parenright
Encoding: 41 41 51
Width: 816
VWidth: 200
Flags: HW
LayerCount: 2
Fore
SplineSet
303 234 m 1
 243 144 l 1
 212 144 l 1
 229 338 l 1
 282 418 l 1
 319 418 l 1
 303 234 l 1
257 662 m 1
 274 856 l 1
 305 856 l 1
 349 766 l 1
 333 582 l 1
 296 582 l 1
 257 662 l 1
EndSplineSet
EndChar

StartChar: asterisk
Encoding: 42 42 52
Width: 816
VWidth: 200
Flags: HW
LayerCount: 2
Fore
SplineSet
582 562 m 1
 640 499 l 1
 574 438 l 1
 546 438 l 1
 510 438 l 1
 451 438 l 1
 420 500 l 1
 461 562 l 1
 520 562 l 1
 557 562 l 1
 582 562 l 1
513 766 m 1
 573 856 l 1
 604 856 l 1
 587 662 l 1
 534 582 l 1
 497 582 l 1
 513 766 l 1
366 731 m 1
 377 856 l 1
 501 856 l 1
 490 731 l 1
 481 628 l 1
 410 521 l 1
 357 628 l 1
 366 731 l 1
559 338 m 1
 542 144 l 1
 511 144 l 1
 467 234 l 1
 483 418 l 1
 520 418 l 1
 559 338 l 1
365 562 m 1
 396 500 l 1
 355 438 l 1
 296 438 l 1
 259 438 l 1
 232 438 l 1
 175 500 l 1
 242 562 l 1
 269 562 l 1
 306 562 l 1
 365 562 l 1
303 234 m 1
 243 144 l 1
 212 144 l 1
 229 338 l 1
 282 418 l 1
 319 418 l 1
 303 234 l 1
450 269 m 1
 439 144 l 1
 315 144 l 1
 326 269 l 1
 335 372 l 1
 406 479 l 1
 459 372 l 1
 450 269 l 1
257 662 m 1
 274 856 l 1
 305 856 l 1
 349 766 l 1
 333 582 l 1
 296 582 l 1
 257 662 l 1
EndSplineSet
EndChar

StartChar: plus
Encoding: 43 43 53
Width: 816
VWidth: 200
Flags: HW
LayerCount: 2
Fore
SplineSet
582 562 m 1
 640 499 l 1
 574 438 l 1
 546 438 l 1
 510 438 l 1
 451 438 l 1
 420 500 l 1
 461 562 l 1
 520 562 l 1
 557 562 l 1
 582 562 l 1
366 731 m 1
 377 856 l 1
 501 856 l 1
 490 731 l 1
 481 628 l 1
 410 521 l 1
 357 628 l 1
 366 731 l 1
365 562 m 1
 396 500 l 1
 355 438 l 1
 296 438 l 1
 259 438 l 1
 232 438 l 1
 175 500 l 1
 242 562 l 1
 269 562 l 1
 306 562 l 1
 365 562 l 1
450 269 m 1
 439 144 l 1
 315 144 l 1
 326 269 l 1
 335 372 l 1
 406 479 l 1
 459 372 l 1
 450 269 l 1
EndSplineSet
EndChar

StartChar: slash
Encoding: 47 47 54
Width: 816
VWidth: 200
Flags: HW
LayerCount: 2
Fore
SplineSet
513 766 m 1
 573 856 l 1
 604 856 l 1
 587 662 l 1
 534 582 l 1
 497 582 l 1
 513 766 l 1
303 234 m 1
 243 144 l 1
 212 144 l 1
 229 338 l 1
 282 418 l 1
 319 418 l 1
 303 234 l 1
EndSplineSet
EndChar

StartChar: dollar
Encoding: 36 36 55
Width: 816
VWidth: 200
Flags: HW
LayerCount: 2
Fore
SplineSet
162 515 m 1
 158 510 l 1
 100 510 l 1
 136 924 l 1
 170 955 l 1
 255 862 l 1
 240 698 l 1
 231 590 l 1
 230 576 l 1
 162 515 l 1
582 562 m 1
 640 499 l 1
 574 438 l 1
 546 438 l 1
 510 438 l 1
 451 438 l 1
 420 500 l 1
 461 562 l 1
 520 562 l 1
 557 562 l 1
 582 562 l 1
654 485 m 1
 658 489 l 1
 716 489 l 1
 680 76 l 1
 646 45 l 1
 561 138 l 1
 562 144 l 1
 576 302 l 1
 584 396 l 1
 586 424 l 1
 654 485 l 1
366 731 m 1
 377 856 l 1
 501 856 l 1
 490 731 l 1
 481 628 l 1
 410 521 l 1
 357 628 l 1
 366 731 l 1
631 31 m 1
 597 0 l 1
 426 0 l 1
 302 0 l 1
 131 0 l 1
 103 31 l 1
 204 124 l 1
 229 124 l 1
 313 124 l 1
 437 124 l 1
 521 124 l 1
 546 124 l 1
 631 31 l 1
185 969 m 1
 219 1000 l 1
 390 1000 l 1
 514 1000 l 1
 685 1000 l 1
 713 969 l 1
 612 876 l 1
 587 876 l 1
 503 876 l 1
 379 876 l 1
 295 876 l 1
 276 876 l 1
 270 876 l 1
 270 876 l 1
 185 969 l 1
365 562 m 1
 396 500 l 1
 355 438 l 1
 296 438 l 1
 259 438 l 1
 232 438 l 1
 175 500 l 1
 242 562 l 1
 269 562 l 1
 306 562 l 1
 365 562 l 1
450 269 m 1
 439 144 l 1
 315 144 l 1
 326 269 l 1
 335 372 l 1
 406 479 l 1
 459 372 l 1
 450 269 l 1
EndSplineSet
EndChar

StartChar: percent
Encoding: 37 37 56
Width: 816
VWidth: 200
Flags: HW
LayerCount: 2
Fore
SplineSet
162 515 m 1
 158 510 l 1
 100 510 l 1
 136 924 l 1
 170 955 l 1
 255 862 l 1
 240 698 l 1
 231 590 l 1
 230 576 l 1
 162 515 l 1
582 562 m 1
 640 499 l 1
 574 438 l 1
 546 438 l 1
 510 438 l 1
 451 438 l 1
 420 500 l 1
 461 562 l 1
 520 562 l 1
 557 562 l 1
 582 562 l 1
654 485 m 1
 658 489 l 1
 716 489 l 1
 680 76 l 1
 646 45 l 1
 561 138 l 1
 562 144 l 1
 576 302 l 1
 584 396 l 1
 586 424 l 1
 654 485 l 1
513 766 m 1
 573 856 l 1
 604 856 l 1
 587 662 l 1
 534 582 l 1
 497 582 l 1
 513 766 l 1
559 338 m 1
 542 144 l 1
 511 144 l 1
 467 234 l 1
 483 418 l 1
 520 418 l 1
 559 338 l 1
365 562 m 1
 396 500 l 1
 355 438 l 1
 296 438 l 1
 259 438 l 1
 232 438 l 1
 175 500 l 1
 242 562 l 1
 269 562 l 1
 306 562 l 1
 365 562 l 1
303 234 m 1
 243 144 l 1
 212 144 l 1
 229 338 l 1
 282 418 l 1
 319 418 l 1
 303 234 l 1
257 662 m 1
 274 856 l 1
 305 856 l 1
 349 766 l 1
 333 582 l 1
 296 582 l 1
 257 662 l 1
EndSplineSet
EndChar

StartChar: ampersand
Encoding: 38 38 57
Width: 816
VWidth: 200
Flags: HW
LayerCount: 2
Fore
SplineSet
654 485 m 1
 658 489 l 1
 716 489 l 1
 680 76 l 1
 646 45 l 1
 561 138 l 1
 562 144 l 1
 576 302 l 1
 584 396 l 1
 586 424 l 1
 654 485 l 1
513 766 m 1
 573 856 l 1
 604 856 l 1
 587 662 l 1
 534 582 l 1
 497 582 l 1
 513 766 l 1
559 338 m 1
 542 144 l 1
 511 144 l 1
 467 234 l 1
 483 418 l 1
 520 418 l 1
 559 338 l 1
631 31 m 1
 597 0 l 1
 426 0 l 1
 302 0 l 1
 131 0 l 1
 103 31 l 1
 204 124 l 1
 229 124 l 1
 313 124 l 1
 437 124 l 1
 521 124 l 1
 546 124 l 1
 631 31 l 1
185 969 m 1
 219 1000 l 1
 390 1000 l 1
 514 1000 l 1
 685 1000 l 1
 713 969 l 1
 612 876 l 1
 587 876 l 1
 503 876 l 1
 379 876 l 1
 295 876 l 1
 276 876 l 1
 270 876 l 1
 270 876 l 1
 185 969 l 1
303 234 m 1
 243 144 l 1
 212 144 l 1
 229 338 l 1
 282 418 l 1
 319 418 l 1
 303 234 l 1
257 662 m 1
 274 856 l 1
 305 856 l 1
 349 766 l 1
 333 582 l 1
 296 582 l 1
 257 662 l 1
EndSplineSet
EndChar

StartChar: comma
Encoding: 44 44 58
Width: 816
VWidth: 200
Flags: HW
LayerCount: 2
Fore
SplineSet
303 234 m 1
 243 144 l 1
 212 144 l 1
 229 338 l 1
 282 418 l 1
 319 418 l 1
 303 234 l 1
EndSplineSet
EndChar

StartChar: brokenbar
Encoding: 166 166 59
Width: 816
VWidth: 200
Flags: HW
LayerCount: 2
Fore
SplineSet
366 731 m 1
 377 856 l 1
 501 856 l 1
 490 731 l 1
 481 628 l 1
 410 521 l 1
 357 628 l 1
 366 731 l 1
450 269 m 1
 439 144 l 1
 315 144 l 1
 326 269 l 1
 335 372 l 1
 406 479 l 1
 459 372 l 1
 450 269 l 1
EndSplineSet
EndChar

StartChar: grave
Encoding: 96 96 60
Width: 816
VWidth: 200
Flags: HW
LayerCount: 2
Fore
SplineSet
257 662 m 1
 274 856 l 1
 305 856 l 1
 349 766 l 1
 333 582 l 1
 296 582 l 1
 257 662 l 1
EndSplineSet
EndChar

StartChar: plusminus
Encoding: 177 177 61
Width: 816
VWidth: 200
Flags: HW
LayerCount: 2
Fore
SplineSet
582 562 m 1
 640 499 l 1
 574 438 l 1
 546 438 l 1
 510 438 l 1
 451 438 l 1
 420 500 l 1
 461 562 l 1
 520 562 l 1
 557 562 l 1
 582 562 l 1
366 731 m 1
 377 856 l 1
 501 856 l 1
 490 731 l 1
 481 628 l 1
 410 521 l 1
 357 628 l 1
 366 731 l 1
631 31 m 1
 597 0 l 1
 426 0 l 1
 302 0 l 1
 131 0 l 1
 103 31 l 1
 204 124 l 1
 229 124 l 1
 313 124 l 1
 437 124 l 1
 521 124 l 1
 546 124 l 1
 631 31 l 1
365 562 m 1
 396 500 l 1
 355 438 l 1
 296 438 l 1
 259 438 l 1
 232 438 l 1
 175 500 l 1
 242 562 l 1
 269 562 l 1
 306 562 l 1
 365 562 l 1
450 269 m 1
 439 144 l 1
 315 144 l 1
 326 269 l 1
 335 372 l 1
 406 479 l 1
 459 372 l 1
 450 269 l 1
EndSplineSet
EndChar

StartChar: asciitilde
Encoding: 126 126 62
Width: 816
VWidth: 200
Flags: HW
LayerCount: 2
Fore
SplineSet
162 515 m 1
 158 510 l 1
 100 510 l 1
 136 924 l 1
 170 955 l 1
 255 862 l 1
 240 698 l 1
 231 590 l 1
 230 576 l 1
 162 515 l 1
582 562 m 1
 640 499 l 1
 574 438 l 1
 546 438 l 1
 510 438 l 1
 451 438 l 1
 420 500 l 1
 461 562 l 1
 520 562 l 1
 557 562 l 1
 582 562 l 1
192 144 m 1
 191 138 l 1
 90 45 l 1
 62 76 l 1
 98 490 l 1
 156 490 l 1
 160 485 l 1
 216 424 l 1
 213 384 l 1
 206 302 l 1
 192 144 l 1
654 485 m 1
 658 489 l 1
 716 489 l 1
 680 76 l 1
 646 45 l 1
 561 138 l 1
 562 144 l 1
 576 302 l 1
 584 396 l 1
 586 424 l 1
 654 485 l 1
513 766 m 1
 573 856 l 1
 604 856 l 1
 587 662 l 1
 534 582 l 1
 497 582 l 1
 513 766 l 1
726 955 m 1
 754 924 l 1
 718 510 l 1
 660 510 l 1
 656 514 l 1
 600 575 l 1
 601 586 l 1
 610 698 l 1
 624 856 l 1
 625 862 l 1
 726 955 l 1
366 731 m 1
 377 856 l 1
 501 856 l 1
 490 731 l 1
 481 628 l 1
 410 521 l 1
 357 628 l 1
 366 731 l 1
559 338 m 1
 542 144 l 1
 511 144 l 1
 467 234 l 1
 483 418 l 1
 520 418 l 1
 559 338 l 1
631 31 m 1
 597 0 l 1
 426 0 l 1
 302 0 l 1
 131 0 l 1
 103 31 l 1
 204 124 l 1
 229 124 l 1
 313 124 l 1
 437 124 l 1
 521 124 l 1
 546 124 l 1
 631 31 l 1
185 969 m 1
 219 1000 l 1
 390 1000 l 1
 514 1000 l 1
 685 1000 l 1
 713 969 l 1
 612 876 l 1
 587 876 l 1
 503 876 l 1
 379 876 l 1
 295 876 l 1
 276 876 l 1
 270 876 l 1
 270 876 l 1
 185 969 l 1
365 562 m 1
 396 500 l 1
 355 438 l 1
 296 438 l 1
 259 438 l 1
 232 438 l 1
 175 500 l 1
 242 562 l 1
 269 562 l 1
 306 562 l 1
 365 562 l 1
303 234 m 1
 243 144 l 1
 212 144 l 1
 229 338 l 1
 282 418 l 1
 319 418 l 1
 303 234 l 1
450 269 m 1
 439 144 l 1
 315 144 l 1
 326 269 l 1
 335 372 l 1
 406 479 l 1
 459 372 l 1
 450 269 l 1
257 662 m 1
 274 856 l 1
 305 856 l 1
 349 766 l 1
 333 582 l 1
 296 582 l 1
 257 662 l 1
EndSplineSet
EndChar

StartChar: o
Encoding: 111 111 63
Width: 816
VWidth: 200
Flags: HW
LayerCount: 2
Fore
SplineSet
162 515 m 1
 158 510 l 1
 100 510 l 1
 136 924 l 1
 170 955 l 1
 255 862 l 1
 240 698 l 1
 231 590 l 1
 230 576 l 1
 162 515 l 1
192 144 m 1
 191 138 l 1
 90 45 l 1
 62 76 l 1
 98 490 l 1
 156 490 l 1
 160 485 l 1
 216 424 l 1
 213 384 l 1
 206 302 l 1
 192 144 l 1
654 485 m 1
 658 489 l 1
 716 489 l 1
 680 76 l 1
 646 45 l 1
 561 138 l 1
 562 144 l 1
 576 302 l 1
 584 396 l 1
 586 424 l 1
 654 485 l 1
726 955 m 1
 754 924 l 1
 718 510 l 1
 660 510 l 1
 656 514 l 1
 600 575 l 1
 601 586 l 1
 610 698 l 1
 624 856 l 1
 625 862 l 1
 726 955 l 1
631 31 m 1
 597 0 l 1
 426 0 l 1
 302 0 l 1
 131 0 l 1
 103 31 l 1
 204 124 l 1
 229 124 l 1
 313 124 l 1
 437 124 l 1
 521 124 l 1
 546 124 l 1
 631 31 l 1
185 969 m 1
 219 1000 l 1
 390 1000 l 1
 514 1000 l 1
 685 1000 l 1
 713 969 l 1
 612 876 l 1
 587 876 l 1
 503 876 l 1
 379 876 l 1
 295 876 l 1
 276 876 l 1
 270 876 l 1
 270 876 l 1
 185 969 l 1
EndSplineSet
EndChar

StartChar: bar
Encoding: 124 124 64
Width: 816
VWidth: 200
Flags: HW
LayerCount: 2
Fore
SplineSet
366 731 m 1
 377 856 l 1
 501 856 l 1
 490 731 l 1
 481 628 l 1
 410 521 l 1
 357 628 l 1
 366 731 l 1
450 269 m 1
 439 144 l 1
 315 144 l 1
 326 269 l 1
 335 372 l 1
 406 479 l 1
 459 372 l 1
 450 269 l 1
EndSplineSet
EndChar

StartChar: a
Encoding: 97 97 65
Width: 816
VWidth: 200
Flags: HW
LayerCount: 2
Fore
SplineSet
162 515 m 1
 158 510 l 1
 100 510 l 1
 136 924 l 1
 170 955 l 1
 255 862 l 1
 240 698 l 1
 231 590 l 1
 230 576 l 1
 162 515 l 1
582 562 m 1
 640 499 l 1
 574 438 l 1
 546 438 l 1
 510 438 l 1
 451 438 l 1
 420 500 l 1
 461 562 l 1
 520 562 l 1
 557 562 l 1
 582 562 l 1
192 144 m 1
 191 138 l 1
 90 45 l 1
 62 76 l 1
 98 490 l 1
 156 490 l 1
 160 485 l 1
 216 424 l 1
 213 384 l 1
 206 302 l 1
 192 144 l 1
654 485 m 1
 658 489 l 1
 716 489 l 1
 680 76 l 1
 646 45 l 1
 561 138 l 1
 562 144 l 1
 576 302 l 1
 584 396 l 1
 586 424 l 1
 654 485 l 1
726 955 m 1
 754 924 l 1
 718 510 l 1
 660 510 l 1
 656 514 l 1
 600 575 l 1
 601 586 l 1
 610 698 l 1
 624 856 l 1
 625 862 l 1
 726 955 l 1
185 969 m 1
 219 1000 l 1
 390 1000 l 1
 514 1000 l 1
 685 1000 l 1
 713 969 l 1
 612 876 l 1
 587 876 l 1
 503 876 l 1
 379 876 l 1
 295 876 l 1
 276 876 l 1
 270 876 l 1
 270 876 l 1
 185 969 l 1
365 562 m 1
 396 500 l 1
 355 438 l 1
 296 438 l 1
 259 438 l 1
 232 438 l 1
 175 500 l 1
 242 562 l 1
 269 562 l 1
 306 562 l 1
 365 562 l 1
EndSplineSet
EndChar

StartChar: b
Encoding: 98 98 66
Width: 816
VWidth: 200
Flags: HW
LayerCount: 2
Fore
SplineSet
582 562 m 1
 640 499 l 1
 574 438 l 1
 546 438 l 1
 510 438 l 1
 451 438 l 1
 420 500 l 1
 461 562 l 1
 520 562 l 1
 557 562 l 1
 582 562 l 1
654 485 m 1
 658 489 l 1
 716 489 l 1
 680 76 l 1
 646 45 l 1
 561 138 l 1
 562 144 l 1
 576 302 l 1
 584 396 l 1
 586 424 l 1
 654 485 l 1
726 955 m 1
 754 924 l 1
 718 510 l 1
 660 510 l 1
 656 514 l 1
 600 575 l 1
 601 586 l 1
 610 698 l 1
 624 856 l 1
 625 862 l 1
 726 955 l 1
366 731 m 1
 377 856 l 1
 501 856 l 1
 490 731 l 1
 481 628 l 1
 410 521 l 1
 357 628 l 1
 366 731 l 1
631 31 m 1
 597 0 l 1
 426 0 l 1
 302 0 l 1
 131 0 l 1
 103 31 l 1
 204 124 l 1
 229 124 l 1
 313 124 l 1
 437 124 l 1
 521 124 l 1
 546 124 l 1
 631 31 l 1
185 969 m 1
 219 1000 l 1
 390 1000 l 1
 514 1000 l 1
 685 1000 l 1
 713 969 l 1
 612 876 l 1
 587 876 l 1
 503 876 l 1
 379 876 l 1
 295 876 l 1
 276 876 l 1
 270 876 l 1
 270 876 l 1
 185 969 l 1
450 269 m 1
 439 144 l 1
 315 144 l 1
 326 269 l 1
 335 372 l 1
 406 479 l 1
 459 372 l 1
 450 269 l 1
EndSplineSet
EndChar

StartChar: c
Encoding: 99 99 67
Width: 816
VWidth: 200
Flags: HW
LayerCount: 2
Fore
SplineSet
162 515 m 1
 158 510 l 1
 100 510 l 1
 136 924 l 1
 170 955 l 1
 255 862 l 1
 240 698 l 1
 231 590 l 1
 230 576 l 1
 162 515 l 1
192 144 m 1
 191 138 l 1
 90 45 l 1
 62 76 l 1
 98 490 l 1
 156 490 l 1
 160 485 l 1
 216 424 l 1
 213 384 l 1
 206 302 l 1
 192 144 l 1
631 31 m 1
 597 0 l 1
 426 0 l 1
 302 0 l 1
 131 0 l 1
 103 31 l 1
 204 124 l 1
 229 124 l 1
 313 124 l 1
 437 124 l 1
 521 124 l 1
 546 124 l 1
 631 31 l 1
185 969 m 1
 219 1000 l 1
 390 1000 l 1
 514 1000 l 1
 685 1000 l 1
 713 969 l 1
 612 876 l 1
 587 876 l 1
 503 876 l 1
 379 876 l 1
 295 876 l 1
 276 876 l 1
 270 876 l 1
 270 876 l 1
 185 969 l 1
EndSplineSet
EndChar

StartChar: d
Encoding: 100 100 68
Width: 816
VWidth: 200
Flags: HW
LayerCount: 2
Fore
SplineSet
654 485 m 1
 658 489 l 1
 716 489 l 1
 680 76 l 1
 646 45 l 1
 561 138 l 1
 562 144 l 1
 576 302 l 1
 584 396 l 1
 586 424 l 1
 654 485 l 1
726 955 m 1
 754 924 l 1
 718 510 l 1
 660 510 l 1
 656 514 l 1
 600 575 l 1
 601 586 l 1
 610 698 l 1
 624 856 l 1
 625 862 l 1
 726 955 l 1
366 731 m 1
 377 856 l 1
 501 856 l 1
 490 731 l 1
 481 628 l 1
 410 521 l 1
 357 628 l 1
 366 731 l 1
631 31 m 1
 597 0 l 1
 426 0 l 1
 302 0 l 1
 131 0 l 1
 103 31 l 1
 204 124 l 1
 229 124 l 1
 313 124 l 1
 437 124 l 1
 521 124 l 1
 546 124 l 1
 631 31 l 1
185 969 m 1
 219 1000 l 1
 390 1000 l 1
 514 1000 l 1
 685 1000 l 1
 713 969 l 1
 612 876 l 1
 587 876 l 1
 503 876 l 1
 379 876 l 1
 295 876 l 1
 276 876 l 1
 270 876 l 1
 270 876 l 1
 185 969 l 1
450 269 m 1
 439 144 l 1
 315 144 l 1
 326 269 l 1
 335 372 l 1
 406 479 l 1
 459 372 l 1
 450 269 l 1
EndSplineSet
EndChar

StartChar: e
Encoding: 101 101 69
Width: 816
VWidth: 200
Flags: HW
LayerCount: 2
Fore
SplineSet
162 515 m 1
 158 510 l 1
 100 510 l 1
 136 924 l 1
 170 955 l 1
 255 862 l 1
 240 698 l 1
 231 590 l 1
 230 576 l 1
 162 515 l 1
582 562 m 1
 640 499 l 1
 574 438 l 1
 546 438 l 1
 510 438 l 1
 451 438 l 1
 420 500 l 1
 461 562 l 1
 520 562 l 1
 557 562 l 1
 582 562 l 1
192 144 m 1
 191 138 l 1
 90 45 l 1
 62 76 l 1
 98 490 l 1
 156 490 l 1
 160 485 l 1
 216 424 l 1
 213 384 l 1
 206 302 l 1
 192 144 l 1
631 31 m 1
 597 0 l 1
 426 0 l 1
 302 0 l 1
 131 0 l 1
 103 31 l 1
 204 124 l 1
 229 124 l 1
 313 124 l 1
 437 124 l 1
 521 124 l 1
 546 124 l 1
 631 31 l 1
185 969 m 1
 219 1000 l 1
 390 1000 l 1
 514 1000 l 1
 685 1000 l 1
 713 969 l 1
 612 876 l 1
 587 876 l 1
 503 876 l 1
 379 876 l 1
 295 876 l 1
 276 876 l 1
 270 876 l 1
 270 876 l 1
 185 969 l 1
365 562 m 1
 396 500 l 1
 355 438 l 1
 296 438 l 1
 259 438 l 1
 232 438 l 1
 175 500 l 1
 242 562 l 1
 269 562 l 1
 306 562 l 1
 365 562 l 1
EndSplineSet
EndChar

StartChar: f
Encoding: 102 102 70
Width: 816
VWidth: 200
Flags: HW
LayerCount: 2
Fore
SplineSet
162 515 m 1
 158 510 l 1
 100 510 l 1
 136 924 l 1
 170 955 l 1
 255 862 l 1
 240 698 l 1
 231 590 l 1
 230 576 l 1
 162 515 l 1
582 562 m 1
 640 499 l 1
 574 438 l 1
 546 438 l 1
 510 438 l 1
 451 438 l 1
 420 500 l 1
 461 562 l 1
 520 562 l 1
 557 562 l 1
 582 562 l 1
192 144 m 1
 191 138 l 1
 90 45 l 1
 62 76 l 1
 98 490 l 1
 156 490 l 1
 160 485 l 1
 216 424 l 1
 213 384 l 1
 206 302 l 1
 192 144 l 1
185 969 m 1
 219 1000 l 1
 390 1000 l 1
 514 1000 l 1
 685 1000 l 1
 713 969 l 1
 612 876 l 1
 587 876 l 1
 503 876 l 1
 379 876 l 1
 295 876 l 1
 276 876 l 1
 270 876 l 1
 270 876 l 1
 185 969 l 1
365 562 m 1
 396 500 l 1
 355 438 l 1
 296 438 l 1
 259 438 l 1
 232 438 l 1
 175 500 l 1
 242 562 l 1
 269 562 l 1
 306 562 l 1
 365 562 l 1
EndSplineSet
EndChar

StartChar: g
Encoding: 103 103 71
Width: 816
VWidth: 200
Flags: HW
LayerCount: 2
Fore
SplineSet
162 515 m 1
 158 510 l 1
 100 510 l 1
 136 924 l 1
 170 955 l 1
 255 862 l 1
 240 698 l 1
 231 590 l 1
 230 576 l 1
 162 515 l 1
582 562 m 1
 640 499 l 1
 574 438 l 1
 546 438 l 1
 510 438 l 1
 451 438 l 1
 420 500 l 1
 461 562 l 1
 520 562 l 1
 557 562 l 1
 582 562 l 1
192 144 m 1
 191 138 l 1
 90 45 l 1
 62 76 l 1
 98 490 l 1
 156 490 l 1
 160 485 l 1
 216 424 l 1
 213 384 l 1
 206 302 l 1
 192 144 l 1
654 485 m 1
 658 489 l 1
 716 489 l 1
 680 76 l 1
 646 45 l 1
 561 138 l 1
 562 144 l 1
 576 302 l 1
 584 396 l 1
 586 424 l 1
 654 485 l 1
631 31 m 1
 597 0 l 1
 426 0 l 1
 302 0 l 1
 131 0 l 1
 103 31 l 1
 204 124 l 1
 229 124 l 1
 313 124 l 1
 437 124 l 1
 521 124 l 1
 546 124 l 1
 631 31 l 1
185 969 m 1
 219 1000 l 1
 390 1000 l 1
 514 1000 l 1
 685 1000 l 1
 713 969 l 1
 612 876 l 1
 587 876 l 1
 503 876 l 1
 379 876 l 1
 295 876 l 1
 276 876 l 1
 270 876 l 1
 270 876 l 1
 185 969 l 1
EndSplineSet
EndChar

StartChar: h
Encoding: 104 104 72
Width: 816
VWidth: 200
Flags: HW
LayerCount: 2
Fore
SplineSet
162 515 m 1
 158 510 l 1
 100 510 l 1
 136 924 l 1
 170 955 l 1
 255 862 l 1
 240 698 l 1
 231 590 l 1
 230 576 l 1
 162 515 l 1
582 562 m 1
 640 499 l 1
 574 438 l 1
 546 438 l 1
 510 438 l 1
 451 438 l 1
 420 500 l 1
 461 562 l 1
 520 562 l 1
 557 562 l 1
 582 562 l 1
192 144 m 1
 191 138 l 1
 90 45 l 1
 62 76 l 1
 98 490 l 1
 156 490 l 1
 160 485 l 1
 216 424 l 1
 213 384 l 1
 206 302 l 1
 192 144 l 1
654 485 m 1
 658 489 l 1
 716 489 l 1
 680 76 l 1
 646 45 l 1
 561 138 l 1
 562 144 l 1
 576 302 l 1
 584 396 l 1
 586 424 l 1
 654 485 l 1
726 955 m 1
 754 924 l 1
 718 510 l 1
 660 510 l 1
 656 514 l 1
 600 575 l 1
 601 586 l 1
 610 698 l 1
 624 856 l 1
 625 862 l 1
 726 955 l 1
365 562 m 1
 396 500 l 1
 355 438 l 1
 296 438 l 1
 259 438 l 1
 232 438 l 1
 175 500 l 1
 242 562 l 1
 269 562 l 1
 306 562 l 1
 365 562 l 1
EndSplineSet
EndChar

StartChar: i
Encoding: 105 105 73
Width: 816
VWidth: 200
Flags: HW
LayerCount: 2
Fore
SplineSet
366 731 m 1
 377 856 l 1
 501 856 l 1
 490 731 l 1
 481 628 l 1
 410 521 l 1
 357 628 l 1
 366 731 l 1
631 31 m 1
 597 0 l 1
 426 0 l 1
 302 0 l 1
 131 0 l 1
 103 31 l 1
 204 124 l 1
 229 124 l 1
 313 124 l 1
 437 124 l 1
 521 124 l 1
 546 124 l 1
 631 31 l 1
185 969 m 1
 219 1000 l 1
 390 1000 l 1
 514 1000 l 1
 685 1000 l 1
 713 969 l 1
 612 876 l 1
 587 876 l 1
 503 876 l 1
 379 876 l 1
 295 876 l 1
 276 876 l 1
 270 876 l 1
 270 876 l 1
 185 969 l 1
450 269 m 1
 439 144 l 1
 315 144 l 1
 326 269 l 1
 335 372 l 1
 406 479 l 1
 459 372 l 1
 450 269 l 1
EndSplineSet
EndChar

StartChar: j
Encoding: 106 106 74
Width: 816
VWidth: 200
Flags: HW
LayerCount: 2
Fore
SplineSet
192 144 m 1
 191 138 l 1
 90 45 l 1
 62 76 l 1
 98 490 l 1
 156 490 l 1
 160 485 l 1
 216 424 l 1
 213 384 l 1
 206 302 l 1
 192 144 l 1
654 485 m 1
 658 489 l 1
 716 489 l 1
 680 76 l 1
 646 45 l 1
 561 138 l 1
 562 144 l 1
 576 302 l 1
 584 396 l 1
 586 424 l 1
 654 485 l 1
726 955 m 1
 754 924 l 1
 718 510 l 1
 660 510 l 1
 656 514 l 1
 600 575 l 1
 601 586 l 1
 610 698 l 1
 624 856 l 1
 625 862 l 1
 726 955 l 1
631 31 m 1
 597 0 l 1
 426 0 l 1
 302 0 l 1
 131 0 l 1
 103 31 l 1
 204 124 l 1
 229 124 l 1
 313 124 l 1
 437 124 l 1
 521 124 l 1
 546 124 l 1
 631 31 l 1
EndSplineSet
EndChar

StartChar: k
Encoding: 107 107 75
Width: 816
VWidth: 200
Flags: HW
LayerCount: 2
Fore
SplineSet
162 515 m 1
 158 510 l 1
 100 510 l 1
 136 924 l 1
 170 955 l 1
 255 862 l 1
 240 698 l 1
 231 590 l 1
 230 576 l 1
 162 515 l 1
192 144 m 1
 191 138 l 1
 90 45 l 1
 62 76 l 1
 98 490 l 1
 156 490 l 1
 160 485 l 1
 216 424 l 1
 213 384 l 1
 206 302 l 1
 192 144 l 1
513 766 m 1
 573 856 l 1
 604 856 l 1
 587 662 l 1
 534 582 l 1
 497 582 l 1
 513 766 l 1
559 338 m 1
 542 144 l 1
 511 144 l 1
 467 234 l 1
 483 418 l 1
 520 418 l 1
 559 338 l 1
365 562 m 1
 396 500 l 1
 355 438 l 1
 296 438 l 1
 259 438 l 1
 232 438 l 1
 175 500 l 1
 242 562 l 1
 269 562 l 1
 306 562 l 1
 365 562 l 1
EndSplineSet
EndChar

StartChar: l
Encoding: 108 108 76
Width: 816
VWidth: 200
Flags: HW
LayerCount: 2
Fore
SplineSet
162 515 m 1
 158 510 l 1
 100 510 l 1
 136 924 l 1
 170 955 l 1
 255 862 l 1
 240 698 l 1
 231 590 l 1
 230 576 l 1
 162 515 l 1
192 144 m 1
 191 138 l 1
 90 45 l 1
 62 76 l 1
 98 490 l 1
 156 490 l 1
 160 485 l 1
 216 424 l 1
 213 384 l 1
 206 302 l 1
 192 144 l 1
631 31 m 1
 597 0 l 1
 426 0 l 1
 302 0 l 1
 131 0 l 1
 103 31 l 1
 204 124 l 1
 229 124 l 1
 313 124 l 1
 437 124 l 1
 521 124 l 1
 546 124 l 1
 631 31 l 1
EndSplineSet
EndChar

StartChar: m
Encoding: 109 109 77
Width: 816
VWidth: 200
Flags: HW
LayerCount: 2
Fore
SplineSet
162 515 m 1
 158 510 l 1
 100 510 l 1
 136 924 l 1
 170 955 l 1
 255 862 l 1
 240 698 l 1
 231 590 l 1
 230 576 l 1
 162 515 l 1
192 144 m 1
 191 138 l 1
 90 45 l 1
 62 76 l 1
 98 490 l 1
 156 490 l 1
 160 485 l 1
 216 424 l 1
 213 384 l 1
 206 302 l 1
 192 144 l 1
654 485 m 1
 658 489 l 1
 716 489 l 1
 680 76 l 1
 646 45 l 1
 561 138 l 1
 562 144 l 1
 576 302 l 1
 584 396 l 1
 586 424 l 1
 654 485 l 1
513 766 m 1
 573 856 l 1
 604 856 l 1
 587 662 l 1
 534 582 l 1
 497 582 l 1
 513 766 l 1
726 955 m 1
 754 924 l 1
 718 510 l 1
 660 510 l 1
 656 514 l 1
 600 575 l 1
 601 586 l 1
 610 698 l 1
 624 856 l 1
 625 862 l 1
 726 955 l 1
450 269 m 1
 439 144 l 1
 315 144 l 1
 326 269 l 1
 335 372 l 1
 406 479 l 1
 459 372 l 1
 450 269 l 1
257 662 m 1
 274 856 l 1
 305 856 l 1
 349 766 l 1
 333 582 l 1
 296 582 l 1
 257 662 l 1
EndSplineSet
EndChar

StartChar: n
Encoding: 110 110 78
Width: 816
VWidth: 200
Flags: HW
LayerCount: 2
Fore
SplineSet
162 515 m 1
 158 510 l 1
 100 510 l 1
 136 924 l 1
 170 955 l 1
 255 862 l 1
 240 698 l 1
 231 590 l 1
 230 576 l 1
 162 515 l 1
192 144 m 1
 191 138 l 1
 90 45 l 1
 62 76 l 1
 98 490 l 1
 156 490 l 1
 160 485 l 1
 216 424 l 1
 213 384 l 1
 206 302 l 1
 192 144 l 1
654 485 m 1
 658 489 l 1
 716 489 l 1
 680 76 l 1
 646 45 l 1
 561 138 l 1
 562 144 l 1
 576 302 l 1
 584 396 l 1
 586 424 l 1
 654 485 l 1
726 955 m 1
 754 924 l 1
 718 510 l 1
 660 510 l 1
 656 514 l 1
 600 575 l 1
 601 586 l 1
 610 698 l 1
 624 856 l 1
 625 862 l 1
 726 955 l 1
559 338 m 1
 542 144 l 1
 511 144 l 1
 467 234 l 1
 483 418 l 1
 520 418 l 1
 559 338 l 1
257 662 m 1
 274 856 l 1
 305 856 l 1
 349 766 l 1
 333 582 l 1
 296 582 l 1
 257 662 l 1
EndSplineSet
EndChar

StartChar: p
Encoding: 112 112 79
Width: 816
VWidth: 200
Flags: HW
LayerCount: 2
Fore
SplineSet
162 515 m 1
 158 510 l 1
 100 510 l 1
 136 924 l 1
 170 955 l 1
 255 862 l 1
 240 698 l 1
 231 590 l 1
 230 576 l 1
 162 515 l 1
582 562 m 1
 640 499 l 1
 574 438 l 1
 546 438 l 1
 510 438 l 1
 451 438 l 1
 420 500 l 1
 461 562 l 1
 520 562 l 1
 557 562 l 1
 582 562 l 1
192 144 m 1
 191 138 l 1
 90 45 l 1
 62 76 l 1
 98 490 l 1
 156 490 l 1
 160 485 l 1
 216 424 l 1
 213 384 l 1
 206 302 l 1
 192 144 l 1
726 955 m 1
 754 924 l 1
 718 510 l 1
 660 510 l 1
 656 514 l 1
 600 575 l 1
 601 586 l 1
 610 698 l 1
 624 856 l 1
 625 862 l 1
 726 955 l 1
185 969 m 1
 219 1000 l 1
 390 1000 l 1
 514 1000 l 1
 685 1000 l 1
 713 969 l 1
 612 876 l 1
 587 876 l 1
 503 876 l 1
 379 876 l 1
 295 876 l 1
 276 876 l 1
 270 876 l 1
 270 876 l 1
 185 969 l 1
365 562 m 1
 396 500 l 1
 355 438 l 1
 296 438 l 1
 259 438 l 1
 232 438 l 1
 175 500 l 1
 242 562 l 1
 269 562 l 1
 306 562 l 1
 365 562 l 1
EndSplineSet
EndChar

StartChar: q
Encoding: 113 113 80
Width: 816
VWidth: 200
Flags: HW
LayerCount: 2
Fore
SplineSet
162 515 m 1
 158 510 l 1
 100 510 l 1
 136 924 l 1
 170 955 l 1
 255 862 l 1
 240 698 l 1
 231 590 l 1
 230 576 l 1
 162 515 l 1
192 144 m 1
 191 138 l 1
 90 45 l 1
 62 76 l 1
 98 490 l 1
 156 490 l 1
 160 485 l 1
 216 424 l 1
 213 384 l 1
 206 302 l 1
 192 144 l 1
654 485 m 1
 658 489 l 1
 716 489 l 1
 680 76 l 1
 646 45 l 1
 561 138 l 1
 562 144 l 1
 576 302 l 1
 584 396 l 1
 586 424 l 1
 654 485 l 1
726 955 m 1
 754 924 l 1
 718 510 l 1
 660 510 l 1
 656 514 l 1
 600 575 l 1
 601 586 l 1
 610 698 l 1
 624 856 l 1
 625 862 l 1
 726 955 l 1
559 338 m 1
 542 144 l 1
 511 144 l 1
 467 234 l 1
 483 418 l 1
 520 418 l 1
 559 338 l 1
631 31 m 1
 597 0 l 1
 426 0 l 1
 302 0 l 1
 131 0 l 1
 103 31 l 1
 204 124 l 1
 229 124 l 1
 313 124 l 1
 437 124 l 1
 521 124 l 1
 546 124 l 1
 631 31 l 1
185 969 m 1
 219 1000 l 1
 390 1000 l 1
 514 1000 l 1
 685 1000 l 1
 713 969 l 1
 612 876 l 1
 587 876 l 1
 503 876 l 1
 379 876 l 1
 295 876 l 1
 276 876 l 1
 270 876 l 1
 270 876 l 1
 185 969 l 1
EndSplineSet
EndChar

StartChar: r
Encoding: 114 114 81
Width: 816
VWidth: 200
Flags: HW
LayerCount: 2
Fore
SplineSet
162 515 m 1
 158 510 l 1
 100 510 l 1
 136 924 l 1
 170 955 l 1
 255 862 l 1
 240 698 l 1
 231 590 l 1
 230 576 l 1
 162 515 l 1
582 562 m 1
 640 499 l 1
 574 438 l 1
 546 438 l 1
 510 438 l 1
 451 438 l 1
 420 500 l 1
 461 562 l 1
 520 562 l 1
 557 562 l 1
 582 562 l 1
192 144 m 1
 191 138 l 1
 90 45 l 1
 62 76 l 1
 98 490 l 1
 156 490 l 1
 160 485 l 1
 216 424 l 1
 213 384 l 1
 206 302 l 1
 192 144 l 1
726 955 m 1
 754 924 l 1
 718 510 l 1
 660 510 l 1
 656 514 l 1
 600 575 l 1
 601 586 l 1
 610 698 l 1
 624 856 l 1
 625 862 l 1
 726 955 l 1
559 338 m 1
 542 144 l 1
 511 144 l 1
 467 234 l 1
 483 418 l 1
 520 418 l 1
 559 338 l 1
185 969 m 1
 219 1000 l 1
 390 1000 l 1
 514 1000 l 1
 685 1000 l 1
 713 969 l 1
 612 876 l 1
 587 876 l 1
 503 876 l 1
 379 876 l 1
 295 876 l 1
 276 876 l 1
 270 876 l 1
 270 876 l 1
 185 969 l 1
365 562 m 1
 396 500 l 1
 355 438 l 1
 296 438 l 1
 259 438 l 1
 232 438 l 1
 175 500 l 1
 242 562 l 1
 269 562 l 1
 306 562 l 1
 365 562 l 1
EndSplineSet
EndChar

StartChar: s
Encoding: 115 115 82
Width: 816
VWidth: 200
Flags: HW
LayerCount: 2
Fore
SplineSet
162 515 m 1
 158 510 l 1
 100 510 l 1
 136 924 l 1
 170 955 l 1
 255 862 l 1
 240 698 l 1
 231 590 l 1
 230 576 l 1
 162 515 l 1
582 562 m 1
 640 499 l 1
 574 438 l 1
 546 438 l 1
 510 438 l 1
 451 438 l 1
 420 500 l 1
 461 562 l 1
 520 562 l 1
 557 562 l 1
 582 562 l 1
654 485 m 1
 658 489 l 1
 716 489 l 1
 680 76 l 1
 646 45 l 1
 561 138 l 1
 562 144 l 1
 576 302 l 1
 584 396 l 1
 586 424 l 1
 654 485 l 1
559 338 m 1
 542 144 l 1
 511 144 l 1
 467 234 l 1
 483 418 l 1
 520 418 l 1
 559 338 l 1
631 31 m 1
 597 0 l 1
 426 0 l 1
 302 0 l 1
 131 0 l 1
 103 31 l 1
 204 124 l 1
 229 124 l 1
 313 124 l 1
 437 124 l 1
 521 124 l 1
 546 124 l 1
 631 31 l 1
185 969 m 1
 219 1000 l 1
 390 1000 l 1
 514 1000 l 1
 685 1000 l 1
 713 969 l 1
 612 876 l 1
 587 876 l 1
 503 876 l 1
 379 876 l 1
 295 876 l 1
 276 876 l 1
 270 876 l 1
 270 876 l 1
 185 969 l 1
365 562 m 1
 396 500 l 1
 355 438 l 1
 296 438 l 1
 259 438 l 1
 232 438 l 1
 175 500 l 1
 242 562 l 1
 269 562 l 1
 306 562 l 1
 365 562 l 1
257 662 m 1
 274 856 l 1
 305 856 l 1
 349 766 l 1
 333 582 l 1
 296 582 l 1
 257 662 l 1
EndSplineSet
EndChar

StartChar: t
Encoding: 116 116 83
Width: 816
VWidth: 200
Flags: HW
LayerCount: 2
Fore
SplineSet
366 731 m 1
 377 856 l 1
 501 856 l 1
 490 731 l 1
 481 628 l 1
 410 521 l 1
 357 628 l 1
 366 731 l 1
185 969 m 1
 219 1000 l 1
 390 1000 l 1
 514 1000 l 1
 685 1000 l 1
 713 969 l 1
 612 876 l 1
 587 876 l 1
 503 876 l 1
 379 876 l 1
 295 876 l 1
 276 876 l 1
 270 876 l 1
 270 876 l 1
 185 969 l 1
450 269 m 1
 439 144 l 1
 315 144 l 1
 326 269 l 1
 335 372 l 1
 406 479 l 1
 459 372 l 1
 450 269 l 1
EndSplineSet
EndChar

StartChar: u
Encoding: 117 117 84
Width: 816
VWidth: 200
Flags: HW
LayerCount: 2
Fore
SplineSet
162 515 m 1
 158 510 l 1
 100 510 l 1
 136 924 l 1
 170 955 l 1
 255 862 l 1
 240 698 l 1
 231 590 l 1
 230 576 l 1
 162 515 l 1
192 144 m 1
 191 138 l 1
 90 45 l 1
 62 76 l 1
 98 490 l 1
 156 490 l 1
 160 485 l 1
 216 424 l 1
 213 384 l 1
 206 302 l 1
 192 144 l 1
654 485 m 1
 658 489 l 1
 716 489 l 1
 680 76 l 1
 646 45 l 1
 561 138 l 1
 562 144 l 1
 576 302 l 1
 584 396 l 1
 586 424 l 1
 654 485 l 1
726 955 m 1
 754 924 l 1
 718 510 l 1
 660 510 l 1
 656 514 l 1
 600 575 l 1
 601 586 l 1
 610 698 l 1
 624 856 l 1
 625 862 l 1
 726 955 l 1
631 31 m 1
 597 0 l 1
 426 0 l 1
 302 0 l 1
 131 0 l 1
 103 31 l 1
 204 124 l 1
 229 124 l 1
 313 124 l 1
 437 124 l 1
 521 124 l 1
 546 124 l 1
 631 31 l 1
EndSplineSet
EndChar

StartChar: v
Encoding: 118 118 85
Width: 816
VWidth: 200
Flags: HW
LayerCount: 2
Fore
SplineSet
162 515 m 1
 158 510 l 1
 100 510 l 1
 136 924 l 1
 170 955 l 1
 255 862 l 1
 240 698 l 1
 231 590 l 1
 230 576 l 1
 162 515 l 1
192 144 m 1
 191 138 l 1
 90 45 l 1
 62 76 l 1
 98 490 l 1
 156 490 l 1
 160 485 l 1
 216 424 l 1
 213 384 l 1
 206 302 l 1
 192 144 l 1
513 766 m 1
 573 856 l 1
 604 856 l 1
 587 662 l 1
 534 582 l 1
 497 582 l 1
 513 766 l 1
303 234 m 1
 243 144 l 1
 212 144 l 1
 229 338 l 1
 282 418 l 1
 319 418 l 1
 303 234 l 1
EndSplineSet
EndChar

StartChar: w
Encoding: 119 119 86
Width: 816
VWidth: 200
Flags: HW
LayerCount: 2
Fore
SplineSet
162 515 m 1
 158 510 l 1
 100 510 l 1
 136 924 l 1
 170 955 l 1
 255 862 l 1
 240 698 l 1
 231 590 l 1
 230 576 l 1
 162 515 l 1
192 144 m 1
 191 138 l 1
 90 45 l 1
 62 76 l 1
 98 490 l 1
 156 490 l 1
 160 485 l 1
 216 424 l 1
 213 384 l 1
 206 302 l 1
 192 144 l 1
654 485 m 1
 658 489 l 1
 716 489 l 1
 680 76 l 1
 646 45 l 1
 561 138 l 1
 562 144 l 1
 576 302 l 1
 584 396 l 1
 586 424 l 1
 654 485 l 1
726 955 m 1
 754 924 l 1
 718 510 l 1
 660 510 l 1
 656 514 l 1
 600 575 l 1
 601 586 l 1
 610 698 l 1
 624 856 l 1
 625 862 l 1
 726 955 l 1
366 731 m 1
 377 856 l 1
 501 856 l 1
 490 731 l 1
 481 628 l 1
 410 521 l 1
 357 628 l 1
 366 731 l 1
559 338 m 1
 542 144 l 1
 511 144 l 1
 467 234 l 1
 483 418 l 1
 520 418 l 1
 559 338 l 1
303 234 m 1
 243 144 l 1
 212 144 l 1
 229 338 l 1
 282 418 l 1
 319 418 l 1
 303 234 l 1
EndSplineSet
EndChar

StartChar: x
Encoding: 120 120 87
Width: 816
VWidth: 200
Flags: HW
LayerCount: 2
Fore
SplineSet
513 766 m 1
 573 856 l 1
 604 856 l 1
 587 662 l 1
 534 582 l 1
 497 582 l 1
 513 766 l 1
559 338 m 1
 542 144 l 1
 511 144 l 1
 467 234 l 1
 483 418 l 1
 520 418 l 1
 559 338 l 1
303 234 m 1
 243 144 l 1
 212 144 l 1
 229 338 l 1
 282 418 l 1
 319 418 l 1
 303 234 l 1
257 662 m 1
 274 856 l 1
 305 856 l 1
 349 766 l 1
 333 582 l 1
 296 582 l 1
 257 662 l 1
EndSplineSet
EndChar

StartChar: y
Encoding: 121 121 88
Width: 816
VWidth: 200
Flags: HW
LayerCount: 2
Fore
SplineSet
513 766 m 1
 573 856 l 1
 604 856 l 1
 587 662 l 1
 534 582 l 1
 497 582 l 1
 513 766 l 1
450 269 m 1
 439 144 l 1
 315 144 l 1
 326 269 l 1
 335 372 l 1
 406 479 l 1
 459 372 l 1
 450 269 l 1
257 662 m 1
 274 856 l 1
 305 856 l 1
 349 766 l 1
 333 582 l 1
 296 582 l 1
 257 662 l 1
EndSplineSet
EndChar

StartChar: z
Encoding: 122 122 89
Width: 816
VWidth: 200
Flags: HW
LayerCount: 2
Fore
SplineSet
513 766 m 1
 573 856 l 1
 604 856 l 1
 587 662 l 1
 534 582 l 1
 497 582 l 1
 513 766 l 1
631 31 m 1
 597 0 l 1
 426 0 l 1
 302 0 l 1
 131 0 l 1
 103 31 l 1
 204 124 l 1
 229 124 l 1
 313 124 l 1
 437 124 l 1
 521 124 l 1
 546 124 l 1
 631 31 l 1
185 969 m 1
 219 1000 l 1
 390 1000 l 1
 514 1000 l 1
 685 1000 l 1
 713 969 l 1
 612 876 l 1
 587 876 l 1
 503 876 l 1
 379 876 l 1
 295 876 l 1
 276 876 l 1
 270 876 l 1
 270 876 l 1
 185 969 l 1
303 234 m 1
 243 144 l 1
 212 144 l 1
 229 338 l 1
 282 418 l 1
 319 418 l 1
 303 234 l 1
EndSplineSet
EndChar

